<svg width="76" height="84" viewBox="0 0 76 84" fill="none" xmlns="http://www.w3.org/2000/svg">
<g id="Group 71">
<path id="Vector" d="M15.2322 67.2743C20.1386 66.5103 25.1315 66.3378 30.0865 66.7611L30.3577 66.7843V66.7285C30.4718 66.9764 30.6063 67.1992 30.7623 67.4049C31.2852 68.0942 32.0411 68.5702 32.9776 69.16C33.1328 69.2577 33.2929 69.3585 33.4577 69.4639C34.6284 70.2128 35.3937 70.8494 36.1189 71.4602C36.146 71.4831 36.1731 71.5059 36.2001 71.5287C36.8975 72.1165 37.5746 72.6871 38.5463 73.3025L38.6878 73.392L38.8245 73.2953C39.1192 73.0867 39.2746 72.9808 39.3543 72.9269C39.3607 72.9226 39.3668 72.9185 39.3726 72.9145C39.4002 72.8958 39.4222 72.881 39.4354 72.8713C39.44 72.8678 39.4483 72.8616 39.4573 72.8538L39.4578 72.8534C39.4632 72.8487 39.4888 72.8266 39.51 72.7914C39.5199 72.775 39.5361 72.7441 39.543 72.7017C39.5814 72.6551 39.6567 72.5713 39.7982 72.429L39.7983 72.4291L39.8049 72.422C41.7325 70.327 43.9142 68.4442 46.3067 66.8107C46.3036 66.8459 46.3007 66.8772 46.298 66.9053C46.2951 66.9373 46.2925 66.965 46.2905 66.9891C46.2881 67.0174 46.286 67.0469 46.2858 67.0733L46.2857 67.0743C46.2856 67.0922 46.2851 67.1456 46.3063 67.2003C46.3192 67.2335 46.3468 67.2851 46.4043 67.3241C46.4649 67.3653 46.5285 67.372 46.5741 67.3681C46.6402 67.3623 46.6917 67.3314 46.7021 67.3252L46.7033 67.3245C46.7183 67.3157 46.7317 67.3073 46.7444 67.2992C46.7867 67.2724 46.8228 67.2496 46.8921 67.232C46.9769 67.2104 47.1222 67.198 47.355 67.2676L47.5133 67.3148L47.6188 67.1878C47.7155 67.0715 47.8766 66.9585 48.109 66.8556C48.3393 66.7536 48.6247 66.6682 48.953 66.5983C49.61 66.4585 50.4125 66.3867 51.2334 66.3587C52.8746 66.3027 54.5517 66.4229 55.202 66.5021C55.5834 66.5486 56.0814 66.4537 56.6068 66.3345C56.7548 66.3009 56.9068 66.2649 57.0625 66.228C57.478 66.1296 57.9196 66.025 58.3812 65.9439C59.577 65.7338 60.8221 65.6994 61.8673 66.3337C61.7614 66.5039 61.6397 66.6656 61.5034 66.8171C58.5066 69.429 55.2533 71.7763 51.7859 73.8287C51.8067 73.7475 51.7924 73.6559 51.7276 73.5808C51.6259 73.4631 51.4796 73.472 51.3918 73.5093C51.3881 73.5109 51.3844 73.5125 51.3807 73.5142C51.328 73.487 51.2571 73.4433 51.1655 73.3748L51.0331 73.2759L50.8903 73.3588C49.3448 74.2558 48.3902 74.8542 47.7738 75.2438C47.7287 75.2723 47.6856 75.2996 47.6443 75.3257C47.4016 75.4792 47.221 75.5935 47.0785 75.6783C46.9093 75.779 46.8123 75.8267 46.7444 75.8486C46.658 75.8765 46.634 75.8692 46.4315 75.8077C46.3965 75.7971 46.3562 75.7848 46.3093 75.7709C46.0108 75.682 45.5428 75.5679 44.6527 75.5185L44.6427 75.5179L44.6327 75.5182L35.3983 75.7439L35.3983 75.7436L35.3864 75.7445C33.827 75.8574 32.8541 75.9548 32.2378 76.0566C31.6392 76.1555 31.3159 76.2657 31.1282 76.4546C31.0299 76.5537 30.9829 76.6603 30.9492 76.7419C30.9446 76.753 30.9402 76.7637 30.936 76.7741C30.9083 76.842 30.8866 76.8951 30.8471 76.9569C30.7665 77.0831 30.5918 77.2715 30.0943 77.527C29.9154 77.4524 29.6726 77.3233 29.378 77.1501C29.0318 76.9463 28.6293 76.6908 28.2009 76.413C27.9853 76.2732 27.763 76.1278 27.5385 75.9808C26.8748 75.5464 26.191 75.0989 25.6012 74.7471C24.9114 74.3357 24.3169 73.9496 23.714 73.558C23.6359 73.5073 23.5577 73.4565 23.4791 73.4056C22.7944 72.9615 22.0843 72.5071 21.2072 72.0038C20.6069 71.6566 20.007 71.3444 19.4376 71.048C19.1446 70.8954 18.8596 70.7471 18.5868 70.6004C17.7747 70.1636 17.0592 69.7354 16.4875 69.2277C15.9199 68.7235 15.4978 68.1439 15.2695 67.4029C15.2564 67.3606 15.244 67.3178 15.2322 67.2743ZM39.2162 72.8974C39.2127 72.8962 39.2077 72.8945 39.2019 72.8922C39.207 72.8941 39.2119 72.8959 39.2162 72.8974ZM46.451 66.8928C46.4459 66.8958 46.4472 66.8944 46.4535 66.8913C46.4525 66.8919 46.4517 66.8924 46.451 66.8928ZM46.7857 67.0777C46.7857 67.0774 46.7857 67.0772 46.7857 67.0769L46.7857 67.0777Z" fill="white" stroke="#CE6E37" stroke-width="0.5"/>
<path id="Vector_2" d="M38.8429 4.11984L38.8639 4.10718L38.8821 4.09068C39.7337 3.31723 40.693 2.65472 41.7333 2.11997C41.7283 2.12517 41.7232 2.13038 41.7182 2.1356C41.3662 2.50048 41.0633 2.9403 40.8767 3.6484L40.794 3.96211H41.1184C42.6006 3.96211 44.2674 3.33205 45.9803 2.6846C46.105 2.63747 46.2299 2.59024 46.3551 2.54316C48.1897 1.85286 50.0903 1.18113 51.9896 1.15692L55.2119 4.49709L49.5336 9.16156C49.2522 9.38489 48.9876 9.60704 48.7286 9.82443C48.3018 10.1828 47.8903 10.5282 47.4443 10.8446C47.024 11.0183 46.6736 11.3175 46.4511 11.6996C46.1647 12.0693 46.052 12.364 45.9726 12.5715C45.9473 12.6377 45.9254 12.695 45.9023 12.7431C45.8186 12.9174 45.6835 13.0979 45.069 13.3955H44.7425H44.2598L44.5383 13.7897C45.1941 14.718 46.0603 14.8758 47.1477 15.0739L47.1631 15.0767L47.188 15.0812C48.2832 15.2807 49.6908 15.5371 51.5921 16.5741L51.5921 16.5741L51.5981 16.5772C52.0561 16.8111 52.473 17.2176 52.8498 17.7226C53.2253 18.2259 53.5506 18.813 53.8303 19.3904C54.0817 19.9096 54.2933 20.4144 54.471 20.8386C54.4909 20.886 54.5103 20.9324 54.5293 20.9777C54.6232 21.2013 54.7084 21.4011 54.7838 21.5599C54.8312 21.6599 54.8813 21.7582 54.9339 21.8388C54.9051 22.0073 54.8572 22.1725 54.7911 22.3319L54.2373 21.7078L54.0586 21.4873C53.9763 21.2608 53.874 21.0412 53.7528 20.8307C53.0095 18.6236 51.9974 17.3031 50.7973 16.5397C49.5964 15.7758 48.2422 15.5927 46.8689 15.5886C46.2097 15.5866 45.5384 15.6261 44.8742 15.6651C44.8466 15.6668 44.819 15.6684 44.7914 15.67C44.0972 15.7107 43.4107 15.7492 42.7365 15.7408C41.4809 15.7251 40.2912 15.5464 39.2223 14.9323C39.2338 14.9177 39.2454 14.9031 39.257 14.8885L39.2633 14.8806C39.3284 14.7984 39.3937 14.716 39.4541 14.6355C39.5766 14.4722 39.6941 14.2969 39.7598 14.1122C39.8287 13.9182 39.8423 13.7077 39.7497 13.4912C39.6612 13.2844 39.4877 13.1005 39.2423 12.9258C39.0336 12.7772 38.9282 12.6982 38.8762 12.6592C38.8723 12.6563 38.8688 12.6536 38.8655 12.6512C38.8541 12.6427 38.8427 12.6341 38.8335 12.6277C38.8293 12.6246 38.8213 12.6191 38.812 12.6134C38.8073 12.6106 38.7989 12.6057 38.7881 12.6005C38.7802 12.5968 38.7562 12.5855 38.7234 12.5796C38.7029 12.5759 38.6324 12.5658 38.5594 12.6055C38.5573 12.6049 38.5553 12.6043 38.5532 12.6037C38.492 12.5859 38.4056 12.5567 38.2856 12.5108L37.8158 12.3079C37.925 12.2376 38.0224 12.1775 38.1099 12.1236C38.1181 12.1185 38.1262 12.1136 38.1342 12.1086L38.1441 12.1025C38.3543 11.9728 38.5414 11.8574 38.6713 11.7006C38.8164 11.5254 38.8754 11.3218 38.9028 11.0546C38.9292 10.7979 38.9292 10.4468 38.9292 9.95492V9.93659V9.72361L38.7189 9.68976L37.1159 9.43176L37.0962 9.42858H37.0762C36.9868 9.42858 36.8227 9.44752 36.6422 9.47098C36.4922 9.49046 36.3162 9.51513 36.1344 9.54063C36.0886 9.54705 36.0424 9.55353 35.9962 9.55999C35.697 9.60179 35.404 9.64146 35.1821 9.66491C35.3399 8.96535 35.7032 8.50362 36.1318 8.08324C36.2553 7.96206 36.3835 7.84511 36.5152 7.72553C36.5245 7.71713 36.5338 7.70872 36.5431 7.7003C36.665 7.58967 36.7899 7.47633 36.9115 7.35919C37.1739 7.10651 37.4306 6.82741 37.6381 6.48682L37.6935 6.39593L37.6664 6.293C37.5798 5.96434 37.5402 5.78768 37.5228 5.69519C37.5179 5.66934 37.5151 5.65181 37.5136 5.64061C37.5148 5.62669 37.5147 5.61386 37.514 5.60269C37.511 5.5593 37.494 5.49161 37.4356 5.43687C37.4223 5.41522 37.3984 5.37359 37.3596 5.2989C37.6669 4.77958 37.9785 4.60659 38.4369 4.35212C38.5606 4.28343 38.695 4.20881 38.8429 4.11984Z" fill="white" stroke="#CE6E37" stroke-width="0.5"/>
<path id="Vector_3" d="M23.2278 13.7874L23.0811 13.7757L22.9997 13.8984L21.7963 15.7123C21.2916 16.1824 20.7295 16.5973 20.1211 16.9484L20.121 16.9483L20.1134 16.9531C19.7948 17.1525 19.4742 17.3485 19.1536 17.5444C18.2938 18.07 17.4344 18.5952 16.6158 19.1871C15.7121 19.8286 15.0017 20.3989 14.3926 20.894C14.3364 20.9397 14.2811 20.9847 14.2267 21.029C13.6886 21.4669 13.2337 21.8371 12.7823 22.1473C11.8581 22.7824 10.9506 23.1648 9.4148 23.2836V21.8736V21.07L8.95891 21.7318C7.39497 24.0022 5.65026 26.1612 3.73942 28.1911C4.41342 24.9298 4.6698 22.4037 4.87037 20.4276C4.88664 20.2673 4.90254 20.1107 4.91826 19.9576C5.14669 17.7331 5.33708 16.3133 6.02662 15.2933C6.70341 14.2922 7.89501 13.6365 10.2685 13.0667C12.6396 12.4976 16.1259 12.0277 21.3238 11.3496L21.4154 11.3377L21.4772 11.269C21.6436 11.0843 21.7446 10.9999 21.793 10.964C21.8159 10.9471 21.8283 10.94 21.8341 10.9366L21.8342 10.9366C21.835 10.9361 21.8425 10.9318 21.8493 10.9274L21.8493 10.9274C21.8525 10.9253 21.8635 10.9182 21.876 10.9077C21.8823 10.9024 21.8944 10.8919 21.9072 10.8765C21.9181 10.8635 21.9437 10.8308 21.9573 10.7807C21.9738 10.7197 21.9688 10.6434 21.9235 10.576C21.8859 10.5199 21.8369 10.4952 21.8157 10.4859C21.7751 10.4682 21.7391 10.466 21.7366 10.4658C21.7267 10.4649 21.7186 10.4648 21.7162 10.4648C21.7133 10.4634 21.7088 10.4611 21.7026 10.457C21.6737 10.4382 21.603 10.3785 21.5114 10.2089L21.4373 10.0717L21.2815 10.0779L15.2423 10.3183C16.9081 7.33101 18.9952 4.56035 21.4496 2.07921C25.4938 2.68125 29.4827 3.56735 33.3815 4.72982L33.795 4.85309L33.6963 4.43307C33.5935 3.99522 33.2469 3.5112 32.8276 3.05096C32.4 2.58169 31.8647 2.10322 31.3365 1.67554C30.8077 1.24728 30.2809 0.865738 29.8672 0.590372C29.8171 0.55698 29.7684 0.525052 29.7215 0.494711C31.5706 0.222105 32.8066 0.195888 33.6647 0.324597C34.6149 0.467123 35.0936 0.797907 35.4367 1.19807C35.6089 1.39882 35.7554 1.6365 35.9127 1.89169C36.3361 2.57864 36.8377 3.3924 38.1285 3.95388C37.6695 4.20877 37.2569 4.46603 36.8882 5.12127L32.7949 7.79542C32.7947 7.79558 32.7944 7.79573 32.7942 7.79589C32.7114 7.84919 32.6233 7.90569 32.5307 7.96514C31.7297 8.47904 30.5848 9.21357 29.5344 10.0073C28.9481 10.4504 28.386 10.9157 27.9266 11.3755C27.4916 11.8109 27.1328 12.2567 26.9407 12.6871C26.4411 13.0811 25.8621 13.382 25.2357 13.5718C24.5892 13.7678 23.9062 13.8411 23.2278 13.7874Z" fill="white" stroke="#CE6E37" stroke-width="0.5"/>
<path id="Vector_4" d="M70.6575 33.2687L70.5904 33.0939L70.4038 33.1091C70.2934 33.1182 70.2014 33.1269 70.1252 33.1346C70.1298 33.0032 70.1042 32.8512 70.0314 32.6741C70.078 32.6267 70.1149 32.5844 70.1442 32.546C70.2497 32.5611 70.4051 32.5741 70.6403 32.576C71.6054 33.0878 72.7852 33.7524 73.7288 34.5601C74.6963 35.3882 75.3663 36.3244 75.3663 37.3575H75.3661L75.3665 37.3664C75.3818 37.7965 75.2248 38.3851 74.9079 39.1062C74.8415 39.2573 74.7686 39.413 74.6897 39.5729C74.7852 39.2683 74.8256 38.9459 74.8165 38.6164C74.7744 37.1021 73.6932 35.4211 72.0913 34.405L72.0914 34.4049L72.0861 34.4018C71.7477 34.1986 71.503 34.1029 71.3139 34.0548C71.2194 34.0308 71.143 34.0198 71.0829 34.0125C71.0639 34.0102 71.0487 34.0084 71.0361 34.0069C71.0045 34.0033 70.9898 34.0016 70.9758 33.9984C70.974 33.9962 70.9715 33.9932 70.9684 33.989C70.9607 33.9785 70.9502 33.9623 70.9366 33.9376C70.8776 33.8306 70.7993 33.6378 70.6575 33.2687ZM70.2482 32.355C70.2482 32.3551 70.2478 32.3563 70.247 32.3583C70.2479 32.3559 70.2482 32.3549 70.2482 32.355ZM74.0065 40.666C74.0947 40.582 74.1752 40.4942 74.2483 40.403C74.0456 40.7612 73.8198 41.1348 73.5748 41.5203C72.4552 43.2819 70.9462 45.2719 69.4284 47.1456C68.1662 48.7037 66.9006 50.178 65.8528 51.3688C66.0231 51.0485 66.1827 50.723 66.3312 50.3927L66.3532 50.3438V50.2902V49.7097V49.512L66.1608 49.4664C65.386 49.283 64.9741 49.2805 64.5302 49.3281C64.4343 49.3383 64.3388 49.3506 64.2387 49.3635C63.8918 49.4081 63.4899 49.4597 62.8276 49.4597H62.8183L62.809 49.4604C62.0503 49.5169 61.5354 49.5507 61.1828 49.5606C60.824 49.5706 60.6714 49.5535 60.6067 49.5319C60.6055 49.5272 60.6041 49.5213 60.6026 49.5139C60.6003 49.5028 60.5979 49.4892 60.5952 49.4735C60.5802 49.3887 60.5544 49.2418 60.4715 49.0798L60.3243 48.7923L60.0829 49.0068L59.3067 49.6964C59.281 49.3899 59.1927 49.0891 59.0445 48.811C58.7991 48.3502 58.4035 47.9772 57.9183 47.743L57.511 47.5463L57.5612 47.9958L58.077 52.621L57.8251 52.5468L57.4995 50.2868L57.4737 50.1073L57.295 50.0762C55.1506 49.7025 52.9418 49.8219 50.8618 50.4216C51.1308 48.6306 51.7473 46.8974 52.6835 45.3061C53.3121 44.5468 54.1339 44.029 54.9889 43.5637C55.1846 43.4572 55.3835 43.3529 55.5823 43.2486C56.2213 42.9133 56.8598 42.5782 57.3889 42.1743C59.5635 41.8382 61.7645 41.6699 63.9693 41.6711C66.4137 41.8295 68.8671 41.8293 71.3115 41.6706L71.314 41.6704C72.536 41.5789 73.4255 41.2187 74.0065 40.666Z" fill="white" stroke="#CE6E37" stroke-width="0.5"/>
<path id="Vector_5" d="M70.8352 32.122C71.0237 32.1456 71.1672 32.1679 71.2751 32.1886C71.2668 32.2394 71.2724 32.2971 71.3021 32.3531C71.3369 32.4186 71.3894 32.4514 71.4152 32.4653C71.4658 32.4925 71.521 32.5027 71.5539 32.508C71.6834 32.5288 71.9509 32.5384 72.4494 32.5401C72.5533 32.8074 72.6286 32.9897 72.6953 33.1111C72.7361 33.1856 72.7827 33.2545 72.8439 33.3096C72.9106 33.3696 72.9809 33.4009 73.0492 33.419C73.0948 33.431 73.1478 33.4385 73.1878 33.4442C73.1967 33.4455 73.2049 33.4467 73.2123 33.4478C73.2609 33.4551 73.3146 33.4646 73.3812 33.4834C73.5126 33.5205 73.7099 33.5985 74.0108 33.7856C74.6966 34.3217 75.19 35.0336 75.4306 35.8276C75.6722 36.6251 75.6485 37.4712 75.3622 38.2564C75.0757 39.0419 74.5388 39.7325 73.818 40.2358C73.0971 40.7393 72.2268 41.0311 71.3206 41.0709L71.3206 41.0709L71.3154 41.0712C68.8899 41.2288 66.4555 41.2288 64.03 41.0712L64.022 41.0707L64.014 41.0707C61.8877 41.0691 59.7648 41.2234 57.6651 41.5321C57.675 41.5228 57.6844 41.5142 57.6932 41.506C57.7052 41.4949 57.7163 41.4847 57.7266 41.475L57.7274 41.4742C57.7722 41.4323 57.8293 41.3789 57.8672 41.2985C57.894 41.242 57.9084 41.1743 57.92 41.1201C57.9217 41.1119 57.9234 41.1039 57.9251 41.0963C57.941 41.0241 57.9658 40.917 58.0161 40.7463L58.0181 40.7393L58.0198 40.7322C58.1307 40.2544 58.132 39.7603 58.0238 39.2821C57.945 38.3886 57.8177 37.4993 57.6425 36.6177C57.6388 36.3699 57.643 36.1842 57.6557 36.0437C57.669 35.8964 57.6904 35.8167 57.7104 35.7732C57.7258 35.7397 57.7374 35.7328 57.7493 35.7269C57.7733 35.7147 57.8166 35.7027 57.9114 35.691C57.9443 35.687 57.9812 35.6832 58.022 35.6791C58.2024 35.6608 58.4583 35.6348 58.7687 35.5412C59.1536 35.425 59.6216 35.207 60.1912 34.7803C60.7608 34.3535 61.049 34.0216 61.2674 33.7628C61.2726 33.7567 61.2777 33.7506 61.2828 33.7446C61.4887 33.5005 61.6076 33.3595 61.8475 33.2396C62.1058 33.1105 62.5175 33.0014 63.3226 32.896C64.1227 32.7913 65.2853 32.693 67.0279 32.572L67.0417 32.5711L67.0553 32.5686C68.3031 32.3421 69.5659 32.1929 70.8352 32.122Z" fill="white" stroke="#CE6E37" stroke-width="0.5"/>
<path id="Vector_6" d="M8.17804 26.9236L8.24427 26.884L8.2766 26.8139L9.53824 24.0791C11.2178 23.965 12.2588 23.5514 13.2989 22.8486C13.8221 22.4952 14.3444 22.0691 14.942 21.5816L14.9564 21.5698C15.5616 21.0762 16.2508 20.5144 17.1145 19.8827C17.701 19.4837 18.2883 19.116 18.8708 18.7539C18.9231 18.7213 18.9755 18.6888 19.0277 18.6564C19.5548 18.3289 20.0779 18.004 20.5869 17.6656C21.2338 17.2915 21.8317 16.8485 22.3683 16.3454L22.3872 16.3277L22.402 16.3066L23.6105 14.5836C24.3033 14.6217 24.9984 14.5387 25.6593 14.3384C26.3514 14.1287 26.9929 13.7943 27.5467 13.3537L28.4337 13.0497C29.0316 12.9139 29.2566 12.9008 29.35 12.9142C29.3768 12.9181 29.3828 12.9225 29.3894 12.9274C29.3899 12.9278 29.3904 12.9282 29.391 12.9286C29.391 12.9286 29.3913 12.9289 29.3918 12.9293C29.4005 12.9365 29.4726 12.9959 29.5387 13.0304C29.7083 13.1191 29.9515 13.147 30.4174 13.1031C30.8077 13.0664 31.3853 12.9754 32.2592 12.7968C32.2544 12.8037 32.2496 12.8105 32.2448 12.8173C31.8956 13.3168 31.658 13.6566 31.5141 13.8944C31.4199 14.05 31.349 14.1882 31.3201 14.3147C31.2863 14.4625 31.3095 14.5967 31.3932 14.715C31.4535 14.8003 31.544 14.8714 31.6138 14.9261C31.6192 14.9303 31.6244 14.9345 31.6295 14.9385C31.7115 15.0031 31.8019 15.075 31.9021 15.1773C32.0713 15.3503 32.2794 15.6221 32.4876 16.0944C31.2095 16.4394 30.0302 16.5998 28.94 16.7079C28.5813 16.7435 28.2295 16.7736 27.8861 16.803C27.1221 16.8683 26.3993 16.9301 25.7324 17.0412C24.7568 17.2037 23.8652 17.4758 23.0716 18.0377C22.2766 18.6006 21.6001 19.44 21.0287 20.7042L21.0227 20.7174L21.0183 20.7312C20.3046 22.9692 20.0875 25.3181 20.3803 27.6362C20.5165 29.679 20.076 31.72 19.101 33.5591C18.1931 34.5014 17.6093 35.677 17.429 36.9346C17.25 38.1829 17.4774 39.4508 18.0794 40.5762C18.0806 41.1368 18.0976 41.4965 18.1149 41.7246C18.0192 41.7437 17.9193 41.7885 17.8133 41.8602C17.6877 41.3816 17.53 40.9106 17.341 40.45L17.2266 40.1713L16.9738 40.3351L16.6298 40.558L16.2617 40.7748L15.5371 41.1101L14.5949 41.2658L14.4204 41.2946L14.3895 41.4687L13.9704 43.826C13.1971 43.9017 12.46 44.1637 11.8314 44.5837C11.7576 44.5017 11.6352 44.3858 11.4557 44.2275L11.4418 44.2153L11.4263 44.2053C10.9734 43.9119 10.4768 44.0162 9.80527 44.1715L9.8052 44.1712L9.79297 44.1747C8.45726 44.5562 7.08339 44.8127 5.69205 44.9402L5.69204 44.94L5.68442 44.941C4.55509 45.0796 3.40876 44.8847 2.40885 44.3866C1.63879 43.0656 0.973069 41.6949 0.416851 40.2852L0.250086 39.2357C0.254156 38.7826 0.401768 38.2664 0.655805 37.7117C0.91241 37.1513 1.27033 36.5673 1.67281 35.9916C2.32116 35.0642 3.07155 34.177 3.67916 33.4586C3.82663 33.2842 3.96569 33.1198 4.09284 32.9671C4.89283 32.0558 5.61135 31.0855 6.24119 30.0657L6.24128 30.0657L6.24494 30.0594C6.51789 29.5871 6.71211 29.126 6.88297 28.7204C6.96582 28.5237 7.04318 28.3401 7.12136 28.1745C7.36699 27.6543 7.64426 27.2433 8.17804 26.9236Z" fill="white" stroke="#CE6E37" stroke-width="0.5"/>
<path id="Vector_7" d="M68.3255 15.6772C68.5574 15.5966 68.7314 15.5311 68.8614 15.4795C68.8727 15.5045 68.8861 15.5295 68.9018 15.5547L70.8494 25.7796C70.6112 25.7567 70.4463 25.7539 70.3303 25.7595C70.3237 25.7449 70.3165 25.7299 70.3086 25.7144C70.2239 25.5471 70.0539 25.3048 69.7145 24.9412L66.6573 20.697L66.6115 20.6334L66.5376 20.6073C66.321 20.5309 66.1414 20.5182 65.9916 20.5424C65.9302 20.5523 65.8771 20.568 65.8321 20.5851H65.7227H65.4727V20.5894C65.4727 20.5929 65.4727 20.5962 65.4727 20.5996V21.9396V21.9999L65.5002 22.0535C66.1253 23.275 66.5066 24.0449 67.0607 25.2626C67.509 26.3962 67.622 26.8489 67.6789 27.2816C67.6951 27.4044 67.707 27.5309 67.7205 27.6739C67.7552 28.0401 67.8 28.514 67.9513 29.3075L67.9674 29.3921L68.0322 29.4488L70.8016 31.8711C69.587 32.0564 68.3635 32.189 67.1353 32.2685L67.1347 32.2686C65.3313 32.3895 64.1067 32.4928 63.2562 32.6048C62.4116 32.716 61.9085 32.8388 61.567 33.0129C61.2139 33.1928 61.0484 33.4213 60.8717 33.6652L60.8628 33.6775C60.6882 33.9184 60.4784 34.2073 60.023 34.5827C59.5698 34.9565 59.1876 35.1286 58.8728 35.2135C58.6107 35.2842 58.3929 35.2965 58.1883 35.3081C58.1423 35.3107 58.097 35.3132 58.0519 35.3164C57.8239 35.3325 57.5406 35.3661 57.3557 35.6299C57.3521 35.635 57.3486 35.6402 57.3452 35.6454C56.7567 33.6645 56.0023 31.7287 55.0886 29.8556C54.5546 27.3659 54.1537 24.8535 53.8874 22.3276L54.6636 23.2021L54.8896 23.4568L55.0649 23.1649C55.2318 22.8868 55.3495 22.5853 55.4133 22.2723C55.701 22.2557 55.8929 22.2596 56.02 22.2655C56.0515 22.2669 56.0878 22.269 56.1208 22.271C56.1549 22.273 56.1855 22.2748 56.204 22.2755C56.2273 22.2763 56.2581 22.2768 56.2894 22.2734C56.3191 22.2702 56.3731 22.2614 56.4272 22.2267C56.5567 22.1437 56.5605 22.0034 56.5613 21.9734C56.5613 21.9725 56.5613 21.9717 56.5613 21.971C56.5619 21.9524 56.5616 21.9312 56.5613 21.9153C56.5613 21.9129 56.5612 21.9107 56.5612 21.9086C56.5609 21.8895 56.5608 21.8699 56.5613 21.8476C56.5629 21.7833 56.5709 21.6829 56.6095 21.5317C56.7861 21.5194 56.9426 21.5087 57.081 21.4993C57.3914 21.4781 57.6103 21.4632 57.7594 21.4493C57.8732 21.4387 57.9691 21.4271 58.0378 21.4076C58.0685 21.3989 58.1302 21.3793 58.1832 21.3303C58.2138 21.302 58.2441 21.2615 58.2605 21.2076C58.2769 21.1539 58.2741 21.1043 58.2654 21.0658C58.2506 21.0008 58.2151 20.9538 58.2034 20.9384L58.2031 20.938C58.1912 20.9221 58.1758 20.904 58.1659 20.8924C58.1638 20.8899 58.162 20.8877 58.1605 20.8859C58.1367 20.8576 58.1237 20.8395 58.1154 20.8217C58.1152 20.8214 58.115 20.821 58.1148 20.8205C58.1126 20.8159 58.1084 20.8072 58.1067 20.7927C59.3137 21.1167 60.1909 20.9936 61.0072 20.6097C61.4313 20.4103 61.8328 20.1434 62.2474 19.8484C62.3804 19.7538 62.5141 19.6567 62.6508 19.5575C62.9457 19.3435 63.254 19.1197 63.5969 18.8899L63.597 18.8902L63.6071 18.8827C64.1175 18.5022 64.8225 18.0558 65.5597 17.589C65.7145 17.491 65.8707 17.3921 66.0268 17.2927C66.8959 16.7395 67.7655 16.1695 68.3255 15.6772ZM57.8041 21.2392C57.8064 21.2424 57.8056 21.2417 57.8029 21.2377C57.8033 21.2382 57.8037 21.2387 57.8041 21.2392ZM57.9014 20.9265C57.9011 20.9266 57.9008 20.9267 57.9005 20.9268L57.9014 20.9265Z" fill="white" stroke="#CE6E37" stroke-width="0.5"/>
<path id="Vector_8" d="M48.3345 59.0103C48.3432 59.0212 48.3515 59.0315 48.3593 59.0412C48.389 59.0774 48.4218 59.1149 48.4555 59.1442C48.472 59.1585 48.4989 59.1799 48.5343 59.1967C48.5687 59.2131 48.6371 59.2371 48.7202 59.2154C48.8091 59.1923 48.86 59.1318 48.8845 59.0892C48.907 59.0501 48.9158 59.0129 48.9198 58.9931C48.9278 58.9529 48.9292 58.9096 48.93 58.8824C48.9305 58.8659 48.9308 58.8496 48.9311 58.8332C48.932 58.7828 48.933 58.7319 48.9387 58.6719C48.9534 58.5189 48.9968 58.3537 49.1268 58.2155C49.2558 58.0784 49.5023 57.9338 49.9932 57.8891C50.5286 57.8403 50.7604 57.8472 50.8628 57.8687C50.8716 57.8705 50.8783 57.8722 50.8832 57.8737C50.8867 57.8798 50.8918 57.8887 50.8993 57.9016C50.9267 57.9494 50.9701 58.0159 51.0532 58.0771C51.1313 58.1345 51.2296 58.1765 51.3533 58.2086C51.5944 58.2712 51.9847 58.309 52.6442 58.3094C54.6371 58.4601 56.6374 58.1267 58.448 57.3429C58.7409 57.7845 59.0881 58.193 59.4824 58.5601C59.6772 58.7635 59.7767 58.9059 59.8312 58.9985C59.8586 59.0451 59.8762 59.0817 59.89 59.1119C59.8911 59.1143 59.8925 59.1174 59.8941 59.121C59.9044 59.1441 59.9248 59.19 59.9473 59.2233C59.9646 59.249 59.9941 59.2856 60.0414 59.3145C60.0916 59.3452 60.1434 59.3562 60.1879 59.3574C60.2534 59.3593 60.3172 59.3386 60.3478 59.3287L60.3519 59.3274C60.367 59.3225 60.3832 59.3171 60.401 59.3112C60.4514 59.2944 60.5147 59.2732 60.6006 59.2486C61.3096 60.2599 61.7899 61.3928 62.0128 62.5793C62.2245 63.7061 62.2001 64.859 61.9419 65.9755C60.7787 65.2828 59.3067 65.3274 58.0502 65.5286C57.3837 65.6354 56.7594 65.7897 56.2524 65.9149C56.2334 65.9196 56.2147 65.9243 56.196 65.9289C55.9356 65.9932 55.7115 66.0479 55.527 66.0848C55.3358 66.123 55.2137 66.1361 55.147 66.1309C54.7265 66.0985 53.0262 65.9767 51.2969 66.0214C50.4332 66.0437 49.5531 66.1078 48.8183 66.248C48.451 66.3181 48.1128 66.4086 47.8281 66.5261C47.6045 66.6183 47.4016 66.7322 47.2436 66.876C47.0381 66.8318 46.8687 66.8331 46.7287 66.861C46.7326 66.7536 46.7357 66.6195 46.7358 66.4542L47.0139 62.787L47.0344 62.5167L46.7634 62.5181C46.269 62.5205 45.7811 62.4187 45.337 62.221C45.0851 62.1088 44.8513 61.9676 44.6408 61.8017C45.1859 61.8234 45.6173 61.8784 45.969 61.9368C46.1531 61.9673 46.3145 61.9986 46.4625 62.0273C46.5079 62.0361 46.552 62.0446 46.5952 62.0528C46.7753 62.0871 46.9424 62.1164 47.0966 62.1266C47.2534 62.1369 47.4066 62.1285 47.5594 62.0817C47.7133 62.0346 47.8525 61.953 47.9878 61.8358C48.2482 61.6104 48.5122 61.2358 48.859 60.6741L48.9558 60.5173L48.8348 60.3785C48.6207 60.1328 48.4576 59.9511 48.3067 59.8301C48.1413 59.6976 47.9838 59.6317 47.7862 59.6126C47.6379 59.5982 47.464 59.6111 47.2599 59.6273L48.1412 59.198C48.2165 59.1722 48.2609 59.1195 48.2726 59.1057L48.2727 59.1055C48.2998 59.0734 48.3197 59.0383 48.3329 59.0133C48.3334 59.0123 48.334 59.0113 48.3345 59.0103Z" fill="white" stroke="#CE6E37" stroke-width="0.5"/>
<path id="Vector_9" d="M17.2075 49.2969L17.0333 49.3274L17.004 49.5018L16.7635 50.933L14.8946 56.4103C14.7324 56.7192 14.6453 56.9066 14.5919 57.0254C14.581 57.0497 14.5722 57.0695 14.5648 57.0863C14.5528 57.1133 14.5444 57.1322 14.5366 57.1484C14.536 57.1499 14.5353 57.1512 14.5347 57.1524C14.5266 57.1575 14.5168 57.1634 14.5017 57.1727C14.4851 57.1829 14.4649 57.1954 14.441 57.2107C14.3765 57.2521 14.2895 57.3116 14.1673 57.4054C13.4294 56.3531 12.6251 55.342 11.7586 54.3774C11.2151 53.7408 10.7147 53.3878 10.2757 53.083L10.2524 53.0669C9.91941 52.8358 9.63302 52.637 9.37412 52.3616C9.40479 52.3373 9.43351 52.31 9.4602 52.2801C9.57723 52.1488 9.64451 51.9783 9.68686 51.8091C9.77093 51.4732 9.77992 51.0389 9.78633 50.6438C9.78659 50.6278 9.78684 50.6118 9.7871 50.5959C9.79342 50.201 9.79912 49.8448 9.85358 49.5818C9.88182 49.4455 9.91796 49.3634 9.95214 49.3196C9.97683 49.2879 9.99747 49.2772 10.0373 49.2772H10.0645L10.0911 49.2713L10.6829 49.1409C10.6972 49.1641 10.7162 49.1866 10.7409 49.2073C10.8266 49.2791 10.9247 49.2759 10.9609 49.2731C11.0078 49.2694 11.0513 49.2571 11.0848 49.2457C11.1535 49.2221 11.2254 49.1854 11.287 49.1478C11.3473 49.111 11.4137 49.0635 11.4644 49.0116C11.4873 48.9881 11.5243 48.9465 11.5477 48.8903C11.5602 48.8605 11.5742 48.8138 11.5697 48.7568C11.5647 48.6942 11.5383 48.6344 11.4929 48.5879C11.4701 48.5646 11.4459 48.5479 11.4231 48.5359C11.4528 48.3664 11.4814 48.237 11.5083 48.1404C11.5569 48.2327 11.609 48.3446 11.6678 48.4711C11.6758 48.4884 11.684 48.5061 11.6924 48.524C11.7706 48.6918 11.8587 48.8779 11.9557 49.0451C12.0507 49.2086 12.1663 49.3759 12.3074 49.4913C12.456 49.6129 12.6576 49.6939 12.8871 49.6178C13.0929 49.5496 13.2653 49.371 13.4192 49.1292L13.4246 49.1207L13.4293 49.1119L14.1952 47.6646H14.3243C15.7651 48.0613 16.5552 47.9473 17.037 47.5013C17.2693 47.2864 17.4036 47.0154 17.5088 46.769C17.5391 46.698 17.5666 46.6303 17.593 46.5654C17.6639 46.3909 17.7267 46.2363 17.8134 46.092C17.9504 45.8636 18.0377 45.6748 18.1085 45.5216L18.1102 45.5179C18.1832 45.3599 18.2319 45.2568 18.2972 45.1678C18.4142 45.0081 18.6111 44.8589 19.2444 44.653L19.2543 44.6498L19.2639 44.6458C19.635 44.4899 20.0455 44.429 20.452 44.4703C20.6422 44.4896 20.8279 44.5308 21.0047 44.5924C21.0018 44.6039 20.9992 44.6155 20.9976 44.6265C20.9954 44.641 20.9918 44.6706 20.9968 44.7066C21.002 44.744 21.0196 44.8086 21.0784 44.862C21.1382 44.9162 21.2054 44.9274 21.2452 44.9283C21.2825 44.9292 21.3118 44.9218 21.3248 44.9182C21.3486 44.9116 21.3708 44.9018 21.3778 44.8987L21.379 44.8982C21.3817 44.8971 21.3841 44.896 21.3862 44.8951C21.3932 44.892 21.398 44.8899 21.4042 44.8874C21.4181 44.8818 21.4318 44.8772 21.4473 44.8744C21.4742 44.8696 21.5265 44.866 21.6118 44.9028L21.7813 44.5981C22.2808 44.9255 22.7111 45.4041 23.0928 45.9817C23.5841 46.7252 23.9827 47.614 24.3405 48.5111C24.4815 48.8645 24.6175 49.2231 24.7503 49.5734C24.9497 50.0992 25.1421 50.6065 25.3336 51.0498C25.4951 51.4235 25.6615 51.7657 25.8397 52.0523C26.0167 52.337 26.2144 52.5817 26.444 52.7459L26.5093 52.7926H26.5895H27.5139L30.0518 53.8789L27.4218 54.6903L27.3986 54.6974L27.3771 54.7089L26.2969 55.2895L26.2968 55.2893L26.2878 55.2946C25.8603 55.5478 25.5712 55.6881 25.3719 55.7748C25.2756 55.8167 25.1992 55.8466 25.1342 55.872L25.1266 55.875L25.1232 55.8763C25.0617 55.9004 24.9984 55.9251 24.9443 55.9535C24.8831 55.9857 24.8247 56.0267 24.7728 56.0883C24.7239 56.1462 24.6903 56.2111 24.662 56.2762C24.633 56.3428 24.5992 56.4362 24.5559 56.5559C24.5239 56.6441 24.4868 56.7467 24.4426 56.8633C24.3022 57.1631 24.2294 57.4873 24.2294 57.8156C24.2294 58.1474 24.3037 58.4749 24.447 58.7773L24.4558 58.796L24.4676 58.8129C24.605 59.0108 24.6722 59.1922 24.7051 59.3209C24.7216 59.3852 24.7295 59.4363 24.7332 59.4694C24.7351 59.4859 24.7359 59.4979 24.7363 59.5047L24.7365 59.5107V59.7588H24.9865H25.3698H25.8228H25.8579L25.8915 59.7492C26.8596 59.4725 27.903 59.5269 28.8305 59.9019L28.84 59.9057L28.8497 59.9087C28.9715 59.9467 29.0902 59.9918 29.2051 60.0436C28.8976 60.0896 28.6645 60.1245 28.4934 60.1552C28.3535 60.1804 28.2378 60.2055 28.1496 60.2368C28.0717 60.2643 27.9506 60.3178 27.8893 60.4433C27.8253 60.5747 27.8675 60.7005 27.8881 60.7557C27.9013 60.791 27.9243 60.8413 27.9444 60.8852C27.9545 60.9071 27.9638 60.9274 27.9708 60.9435C28.0239 61.0655 28.0818 61.2304 28.0818 61.4762V61.617L28.2023 61.69C28.6815 61.9803 28.9849 62.1514 29.1807 62.245C29.2773 62.2911 29.3603 62.3246 29.4319 62.3418C29.5 62.358 29.6021 62.3706 29.7015 62.3166C29.7546 62.2876 29.7904 62.2472 29.8127 62.215C29.8347 62.2181 29.8659 62.2238 29.9084 62.2346C30.1061 62.2845 30.2384 62.3081 30.3397 62.3168C30.434 62.3249 30.498 62.3193 30.5434 62.3154C30.5493 62.3149 30.555 62.3144 30.5603 62.3139L30.5642 62.3136C30.617 62.3093 30.6987 62.3025 31.0912 62.4174L31.7994 62.8171C31.7942 62.8174 31.789 62.8177 31.7839 62.818C31.773 62.8187 31.7622 62.8193 31.7515 62.82C31.5932 62.8294 31.4595 62.8374 31.3332 62.8715C31.1889 62.9105 31.0659 62.979 30.9102 63.084C30.8069 63.1535 30.6782 63.247 30.51 63.369C30.43 63.4271 30.3411 63.4916 30.2417 63.5631L30.1378 63.6379V63.766V66.3969C25.2587 66.0014 20.3453 66.1787 15.5143 66.9246V64.647C15.6346 63.1875 16.1215 61.7728 16.9375 60.5157L16.9858 60.4414L16.9764 60.3532C16.8778 59.4251 17.081 58.6449 17.3816 57.7985C17.4515 57.6018 17.5271 57.4004 17.6051 57.1926C17.8598 56.5145 18.1402 55.7677 18.3304 54.8889C18.5966 53.8151 18.7618 52.7218 18.8243 51.6215L18.8244 51.6199C18.8426 51.2614 18.8699 50.9606 18.8936 50.7007C18.9037 50.5896 18.9131 50.4859 18.9209 50.3884C18.9335 50.229 18.9418 50.0835 18.9386 49.9558C18.9354 49.8297 18.9209 49.7042 18.8781 49.5915C18.8328 49.472 18.7564 49.3695 18.6401 49.2976C18.5299 49.2296 18.4021 49.2004 18.2708 49.1902C18.0155 49.1702 17.6647 49.2171 17.2075 49.2969ZM11.3924 47.9594C11.3924 47.9593 11.3928 47.9597 11.3936 47.9605L11.3924 47.9594Z" fill="white" stroke="#CE6E37" stroke-width="0.5"/>
<path id="Vector_10" d="M48.0503 75.6612C48.639 75.2858 49.5448 74.7152 51.0019 73.8668C51.0308 73.8856 51.0588 73.9029 51.0861 73.9188C51.0498 74.0263 51.0174 74.1583 50.9899 74.3192C49.4669 75.7873 47.8075 77.1294 46.0308 78.3299L46.0238 78.3346L46.0172 78.3397C44.9077 79.2036 44.1067 79.9778 43.3984 80.6818C43.3162 80.7636 43.2353 80.8442 43.1555 80.9239C42.5469 81.5311 41.9977 82.0789 41.3484 82.5963C40.7301 83.0598 40.1832 83.2881 39.6892 83.3612C39.1959 83.4342 38.7367 83.3552 38.2885 83.175C37.8368 82.9934 37.3986 82.71 36.9515 82.3761C36.696 82.1854 36.4527 81.9902 36.2041 81.7909C36.0058 81.6319 35.8042 81.4702 35.5903 81.3059C34.4308 80.415 33.4139 79.7338 32.3233 79.0034C31.7714 78.6338 31.2007 78.2515 30.5831 77.823C30.9504 77.6049 31.1472 77.4093 31.2673 77.2212C31.3329 77.1185 31.3717 77.0227 31.3991 76.955C31.403 76.9454 31.4066 76.9364 31.4101 76.928C31.4391 76.8577 31.4559 76.8282 31.4817 76.8023C31.5423 76.7413 31.709 76.6459 32.318 76.5452C32.9086 76.4476 33.8594 76.3516 35.4152 76.2389L44.6337 76.0136C45.4974 76.0612 45.9333 76.1685 46.1955 76.2456C46.2306 76.256 46.265 76.2668 46.299 76.2776C46.4976 76.3405 46.6826 76.399 46.9242 76.3193C47.0483 76.2784 47.1846 76.2042 47.3529 76.1023C47.4871 76.0211 47.6543 75.9142 47.8661 75.7789C47.924 75.7418 47.9853 75.7026 48.0503 75.6612Z" fill="white" stroke="#CE6E37" stroke-width="0.5"/>
<path id="Vector_11" d="M60.2272 58.8523C60.1932 58.8614 60.1627 58.8699 60.1354 58.8776C60.1285 58.8617 60.1208 58.845 60.1122 58.8276C60.0426 58.6861 59.9211 58.5062 59.699 58.2749L59.6941 58.2698L59.6889 58.265C59.2703 57.876 58.9097 57.4379 58.6164 56.9623L58.5007 56.7748L58.3001 56.866C56.5129 57.6786 54.5199 58.0281 52.5336 57.8763L52.5336 57.8761L52.5235 57.8758C51.8549 57.8517 51.5271 57.7996 51.3668 57.7491C51.3137 57.7323 51.2882 57.7185 51.2781 57.712C51.2779 57.7114 51.2777 57.7109 51.2775 57.7103C51.2772 57.7095 51.2767 57.7082 51.2762 57.7064C51.2694 57.6854 51.2415 57.5989 51.1697 57.5317C51.0897 57.4569 50.988 57.4287 50.8928 57.4154C50.7071 57.3894 50.3853 57.4016 49.8073 57.4575C49.1894 57.5172 48.7873 57.6963 48.5391 57.9488C48.4027 58.0875 48.3226 58.2382 48.2771 58.3821L48.2226 58.3677C48.1078 58.3373 47.9892 58.3463 47.8864 58.4097C47.8638 58.4237 47.8437 58.4392 47.8259 58.4556L46.2555 57.0703L48.4035 56.7605L48.8483 56.6963L48.5592 56.3522L48.5192 56.3046L48.7549 56.1868L48.2095 55.9879L46.6864 55.4326C46.7598 55.4189 46.8354 55.4036 46.9108 55.3853C47.3177 55.2867 47.76 55.0962 48.2652 54.594C48.3429 54.5168 48.4081 54.4584 48.4617 54.4145C48.6338 54.4365 48.8051 54.3671 48.8839 54.2211C48.9058 54.1805 48.9264 54.1212 48.92 54.0508C48.913 53.9734 48.8739 53.8983 48.8043 53.8484C48.7409 53.803 48.6729 53.7929 48.6247 53.793C48.5753 53.7931 48.5293 53.8036 48.4899 53.8168C48.4665 53.8246 48.4426 53.8343 48.4182 53.8459C48.3841 53.8128 48.3428 53.7648 48.2957 53.6956L48.2957 53.6955L48.2936 53.6926C48.1658 53.5104 48.0504 53.3542 47.9464 53.2217C48.2618 53.189 48.5325 53.168 48.7686 53.1497C48.8703 53.1418 48.9656 53.1344 49.0553 53.1268C49.4379 53.0944 49.7559 53.057 50 52.9287C50.2709 52.7862 50.4194 52.5527 50.5262 52.2282C50.6202 51.9423 50.6927 51.5512 50.7833 51.0305C52.7527 50.4349 54.8489 50.2882 56.8931 50.6029L57.2153 52.8398L57.2382 52.9986L57.3921 53.044L58.0409 53.235L60.2272 58.8523ZM48.6554 54.2891C48.6553 54.2893 48.653 54.2901 48.6488 54.2909C48.6534 54.2893 48.6555 54.2889 48.6554 54.2891ZM47.0885 53.0478C47.0885 53.0478 47.089 53.0479 47.09 53.0484L47.0885 53.0478Z" fill="white" stroke="#CE6E37" stroke-width="0.5"/>
<path id="Vector_12" d="M47.5588 14.7484C46.6155 14.5765 46.0209 14.4537 45.5735 13.9789C46.2494 13.6788 46.5057 13.4365 46.6358 13.1067C46.6725 13.0136 46.6957 12.9308 46.7186 12.8495C46.7742 12.6513 46.8273 12.4624 47.0662 12.1571L47.0775 12.1427L47.0865 12.1268C47.2081 11.9133 47.3857 11.7303 47.6033 11.5946L47.7408 12.1884L47.8197 12.5292L48.1166 12.3442L56.6783 7.00829C57.121 7.08546 57.5541 7.20351 57.971 7.36058C58.1044 7.66488 58.2411 7.88541 58.3808 8.05789C58.5353 8.24881 58.6871 8.37255 58.818 8.47727L58.8315 8.48807C58.9573 8.58871 59.055 8.66682 59.147 8.77939C59.1992 8.8433 59.2517 8.92121 59.3032 9.02329C58.9924 9.05752 58.6148 9.08568 58.1957 9.11563C58.1516 9.11878 58.1071 9.12195 58.0622 9.12514C57.5271 9.16324 56.9378 9.20519 56.3602 9.26709C55.7349 9.3341 55.1142 9.42536 54.5822 9.56344C54.0586 9.69934 53.5833 9.88955 53.2824 10.1777L53.0201 10.4288L53.3484 10.5842C54.1562 10.9665 55.2008 11.1529 56.335 11.2523C57.3525 11.3415 58.4646 11.3622 59.5722 11.3829C59.7024 11.3853 59.8325 11.3877 59.9624 11.3903C61.2028 11.4145 62.424 11.4487 63.5138 11.5859C64.4744 11.7068 65.3114 11.9055 65.9599 12.2337C65.5374 12.696 64.9364 13.1845 64.2207 13.6965C63.4255 14.2653 62.5057 14.8516 61.5609 15.4537C61.5192 15.4802 61.4776 15.5068 61.4359 15.5334C59.4746 16.7836 57.4068 18.111 56.262 19.452L56.0674 19.6799L56.3265 19.8305L57.632 20.5891C57.5936 20.7233 57.5974 20.8458 57.6318 20.9552C57.4939 20.9666 57.3076 20.9793 57.0567 20.9964C56.874 21.0089 56.6571 21.0237 56.3995 21.042L56.232 21.054L56.1797 21.2136C56.0915 21.4831 56.0668 21.6779 56.0611 21.8186L56.0508 21.8178C55.9011 21.8054 55.6729 21.7876 55.3282 21.7839C55.3044 21.7423 55.2743 21.6843 55.2378 21.6067C55.1691 21.4603 55.0898 21.2706 54.9987 21.0458C54.9562 20.9411 54.9114 20.8291 54.8642 20.7114C54.7108 20.3283 54.533 19.8843 54.3333 19.4292C54.0719 18.8337 53.769 18.2094 53.4249 17.6599C53.0828 17.1137 52.6887 16.6229 52.2382 16.3124L52.2263 16.3042L52.2136 16.2974C50.2039 15.23 48.7147 14.9588 47.6062 14.757C47.5903 14.7541 47.5745 14.7513 47.5588 14.7484ZM56.0593 21.9973C56.0591 21.997 56.0593 21.9936 56.0602 21.9878C56.06 21.9947 56.0595 21.9976 56.0593 21.9973ZM56.2181 21.8291C56.2235 21.8282 56.2267 21.8282 56.2268 21.8284C56.227 21.8285 56.2243 21.8289 56.2181 21.8291Z" fill="white" stroke="#CE6E37" stroke-width="0.5"/>
<path id="Vector_13" fill-rule="evenodd" clip-rule="evenodd" d="M37.0077 53.7687L38.2971 55.091C39.5515 53.3171 38.8546 52.8656 42.1999 50.35C46.7997 46.8669 48.1238 46.4154 45.6846 40.6747L44.9876 42.1582C47.9496 50.0275 33.9064 50.5758 31.0489 46.3509C30.352 44.9318 30.5611 44.5771 31.0489 42.8032L31.258 40.4812C30.9444 39.3524 31.258 40.1264 30.7702 39.5781C25.8219 50.8983 35.4396 48.4472 37.0077 53.7687Z" fill="white"/>
<path id="Vector_14" d="M32.8926 8.47308L36.7986 5.92122C36.8067 5.93718 36.8138 5.95078 36.8201 5.96238C36.8245 5.98817 36.8311 6.02007 36.8403 6.05999C36.8624 6.15565 36.9037 6.31447 36.9796 6.57991C36.814 6.8295 36.6128 7.04773 36.3911 7.26131C36.275 7.37309 36.1553 7.48168 36.0323 7.59336L36.0056 7.61759C35.8742 7.73688 35.7394 7.85979 35.6081 7.98856C35.0765 8.51 34.591 9.13915 34.4593 10.1671L34.4202 10.4717L34.7265 10.4481C34.918 10.4333 35.3196 10.3805 35.7238 10.3274C35.7792 10.3201 35.8347 10.3128 35.8896 10.3056C36.1206 10.2754 36.3454 10.2464 36.5297 10.225C36.7014 10.205 36.824 10.1933 36.8848 10.1912L38.2587 10.4123C38.2636 10.8059 38.2598 11.0702 38.2371 11.262C38.2117 11.4768 38.1659 11.5686 38.1046 11.638C38.0282 11.7246 37.9112 11.7983 37.6733 11.9455C37.4459 12.0861 37.143 12.2751 36.749 12.5817L36.1743 13.029H36.9026H37.2162H37.4433L37.9186 13.2342L37.9195 13.2346C38.0385 13.2855 38.1347 13.32 38.2128 13.3401C38.2832 13.3583 38.3704 13.3736 38.4551 13.3542C38.4628 13.3525 38.4706 13.3504 38.4786 13.3479C38.5466 13.4037 38.6388 13.4802 38.7641 13.5841C39.0053 13.7843 39.116 13.9295 39.161 14.033C39.1989 14.1204 39.1943 14.186 39.1606 14.2635C39.1195 14.3578 39.0375 14.4629 38.908 14.6094C38.8837 14.6368 38.8579 14.6656 38.831 14.6955C38.7732 14.7599 38.7104 14.8299 38.6463 14.9052L37.0648 13.5563L36.9329 13.4437L36.7812 13.5279C36.3179 13.7852 35.9662 14.0927 35.6637 14.393C35.5417 14.514 35.4326 14.6284 35.3286 14.7373C35.1649 14.909 35.014 15.0672 34.846 15.2166C34.5848 15.4489 34.3146 15.6269 33.9727 15.7237C33.6576 15.8129 33.2641 15.838 32.7375 15.7519C32.5314 15.1509 32.3004 14.7884 32.0882 14.5455C31.9748 14.4158 31.8708 14.3248 31.791 14.2562C31.7021 14.1797 31.671 14.1518 31.6544 14.128C31.6542 14.1277 31.6539 14.1276 31.6537 14.1276C31.6525 14.1274 31.6511 14.1272 31.6541 14.1086C31.661 14.0666 31.6882 13.9881 31.7674 13.8405C31.9096 13.5756 32.1732 13.1691 32.6133 12.4907C32.6591 12.4201 32.7068 12.3466 32.7565 12.2699L33.0863 11.7613L32.4938 11.8896C31.2677 12.1552 30.539 12.2755 30.0964 12.3174C29.6431 12.3603 29.5341 12.3152 29.5067 12.3005C29.4916 12.2924 29.4888 12.29 29.481 12.2831C29.473 12.276 29.4596 12.2641 29.4217 12.2364C29.3555 12.188 29.2751 12.1482 29.1567 12.1313C28.9557 12.1027 28.635 12.1414 28.0315 12.277L28.0182 12.28L28.0053 12.2845L27.6557 12.4043C27.8011 12.1906 27.9902 11.9644 28.2166 11.7302C28.6336 11.2988 29.159 10.8582 29.721 10.4397C30.8455 9.60231 32.0958 8.86841 32.8665 8.48797L32.88 8.48131L32.8926 8.47308ZM38.1897 13.0942C38.1896 13.0941 38.1892 13.0921 38.1887 13.0886C38.1895 13.0926 38.1898 13.0943 38.1897 13.0942Z" fill="white" stroke="#CE6E37" stroke-width="0.5"/>
<path id="Vector_15" d="M63.3693 54.2807L63.3594 54.2927L63.351 54.3058L62.4589 55.7009C61.6304 55.2747 61.0472 54.5017 60.5753 53.5512C60.1998 52.7948 59.9077 51.9552 59.6171 51.1198C59.5282 50.864 59.4393 50.6086 59.3483 50.3562C59.3666 50.3435 59.3849 50.3321 59.4 50.323C59.4092 50.3176 59.4166 50.3134 59.4215 50.3106L59.4267 50.3078L59.4276 50.3073L59.4276 50.3073L59.4276 50.3073L59.4539 50.2934L59.4764 50.2734L60.0607 49.7542C60.0739 49.7994 60.0946 49.8523 60.1298 49.9037C60.1859 49.9853 60.2637 50.0419 60.3569 50.08C60.5222 50.1477 60.7678 50.1682 61.1241 50.1657C61.4925 50.1631 62.0203 50.1343 62.7787 50.0778L62.7787 50.078L62.7878 50.077C63.2288 50.028 63.562 49.9769 63.8343 49.935L63.8368 49.9346C64.1103 49.8925 64.3128 49.8614 64.5064 49.8481C64.8474 49.8249 65.1707 49.8567 65.7858 50.0195V50.3575C65.1785 51.7608 64.3655 53.0809 63.3693 54.2807Z" fill="white" stroke="#CE6E37" stroke-width="0.5"/>
<path id="Vector_16" d="M25.68 59.3135C25.4258 59.2538 25.2377 59.2439 25.0942 59.2638C25.0506 59.1021 24.9746 58.8632 24.8362 58.5126L24.8332 58.5049L24.8296 58.4974C24.7176 58.2609 24.6602 58.0064 24.6602 57.7498C24.6602 57.4931 24.7176 57.2386 24.8296 57.0021L24.8339 56.9931L24.8374 56.9838C24.9143 56.7814 24.9699 56.6127 25.0063 56.5022C25.0218 56.4554 25.0337 56.4191 25.0424 56.3951C25.0581 56.3517 25.0667 56.3353 25.07 56.3298C25.0713 56.3289 25.0733 56.3277 25.0762 56.326C25.0953 56.3151 25.1266 56.3014 25.1949 56.2742C25.2058 56.2699 25.2175 56.2653 25.2298 56.2604C25.2891 56.237 25.3644 56.2072 25.4562 56.1682C25.6791 56.0734 25.9981 55.9245 26.4662 55.6631L27.4371 55.1413C27.4387 55.1419 27.4402 55.1424 27.4417 55.143C27.4428 55.1434 27.4439 55.1438 27.445 55.1442C27.4409 55.2098 27.4465 55.2758 27.4618 55.3402L27.5067 55.5298L27.7015 55.5325L29.5608 55.559C29.4539 55.779 29.3981 55.9312 29.3741 56.041C29.3635 56.0895 29.3569 56.1391 29.3585 56.1884C29.2399 56.2882 29.0185 56.4755 28.6175 56.8388L28.2039 57.2135L28.7588 57.2727L30.0372 57.4092L28.6121 58.7789L28.4492 58.9355L28.5885 59.1134L28.8962 59.5061C28.8873 59.5033 28.8784 59.5004 28.8696 59.4976C27.8612 59.0925 26.7329 59.0279 25.68 59.3135Z" fill="white" stroke="#CE6E37" stroke-width="0.5"/>
<path id="Vector_17" fill-rule="evenodd" clip-rule="evenodd" d="M49.9715 32.6493L48.9958 31.6818C48.4383 32.7783 49.6579 31.6818 48.3686 32.6815C47.3539 33.1062 46.2353 33.2732 45.1278 33.1653L48.264 30.3272C49.4837 29.7144 51.0866 29.6499 52.2017 28.9727H48.9261C46.8261 30.1119 44.9133 31.5238 43.2461 33.1653C43.2461 33.1653 43.4552 33.1653 43.5249 33.1653C43.5946 33.1653 43.7688 33.1653 43.8385 33.1653C45.7202 33.7458 48.6125 34.1651 49.9715 32.6493Z" fill="white"/>
<path id="Vector_18" fill-rule="evenodd" clip-rule="evenodd" d="M22.9297 29.9329C24.7417 30.9972 24.6023 29.9329 26.6931 31.481C27.1506 31.8604 27.64 32.2055 28.1567 32.513C28.4006 32.513 28.8536 32.8678 29.0279 32.9645C29.8642 33.5451 29.0279 32.9645 29.8293 33.8676L26.6234 33.6418C25.4735 30.5779 25.8917 31.9325 25.3341 31.5132V33.5451C26.2656 34.0791 27.3397 34.3621 28.4355 34.3621C29.5312 34.3621 30.6053 34.0791 31.5368 33.5451C26.2053 30.2232 28.2612 29.5137 22.9297 29.9329Z" fill="white"/>
<path id="Vector_19" fill-rule="evenodd" clip-rule="evenodd" d="M24.3941 35.387C25.8577 35.387 28.5757 36.3868 30.1438 35.387C28.4015 34.613 27.0425 35.387 23.9062 33.7422L24.3941 35.387Z" fill="white"/>
<path id="Vector_20" fill-rule="evenodd" clip-rule="evenodd" d="M48.192 28.4849C48.192 26.8078 48.4011 27.7753 47.1118 27.6141L44.1498 29.3879C43.0347 30.3554 43.8362 29.3879 43.3135 30.4522C44.1498 30.6134 43.5923 31.0972 45.4391 29.6136C45.7776 29.247 46.2006 28.9552 46.6771 28.7599C47.1535 28.5645 47.6712 28.4705 48.192 28.4849Z" fill="white"/>
<path id="Vector_21" fill-rule="evenodd" clip-rule="evenodd" d="M26.5185 28C27.2154 28.8708 25.4034 28 27.4942 29.1288C28.4002 29.6126 30.4214 30.8059 31.3971 30.6446C30.9441 29.3223 28.0169 28.258 26.5185 28Z" fill="white"/>
<path id="Vector_22" d="M5.48848 47.2787L2.38542 44.1196L6.43887 42.3927L6.46283 42.3825L6.48418 42.3675L17.7346 34.4977C17.3712 35.4795 17.232 36.5249 17.3307 37.5666C17.4485 38.8094 17.9007 40.0017 18.6418 41.0358L5.48848 47.2787Z" fill="white" stroke="#CE6E37" stroke-width="0.5"/>
<path id="Vector_23" d="M7.31043 47.2996L7.24631 47.1131L7.05002 47.132L6.77299 47.1587L18.8665 41.3316L22.4082 45.0485L14.0033 49.1558L14.0031 49.1555L13.9915 49.162L8.92084 51.9839L7.31043 47.2996Z" fill="white" stroke="#CE6E37" stroke-width="0.5"/>
<path id="Vector_24" d="M7.31043 47.2996L7.24631 47.1131L7.05002 47.132L6.77299 47.1587L18.8665 41.3316L22.4082 45.0485L14.0033 49.1558L14.0031 49.1555L13.9915 49.162L8.92084 51.9839L7.31043 47.2996Z" fill="white" stroke="#CE6E37" stroke-width="0.5"/>
</g>
</svg>
