<svg width="222" height="66" viewBox="0 0 222 66" fill="none" xmlns="http://www.w3.org/2000/svg">
<g id="Group 72">
<path id="Vector" fill-rule="evenodd" clip-rule="evenodd" d="M18.3897 37.8988C17.8325 38.0696 17.2616 38.199 16.6822 38.2858C15.7726 38.4258 14.8513 38.4905 13.9293 38.4793C12.7506 38.4815 11.5774 38.3295 10.4446 38.0278C9.48965 37.7377 8.61114 37.2652 7.86597 36.641C7.19376 36.0368 6.68103 35.2974 6.36756 34.4802C6.00814 33.5826 5.83093 32.6314 5.84486 31.6743V16.7097H0.583008V13.2589H5.70548V6.55061H10.0613V13.2589H18.0064V16.7097H10.0613V31.0293C10.0428 31.5678 10.1375 32.1045 10.3401 32.6096C10.51 33.0831 10.7963 33.5136 11.1764 33.8674C11.59 34.2451 12.0903 34.5317 12.64 34.7059C13.3255 34.9139 14.0444 35.012 14.7656 34.9962C15.3802 35.043 15.9979 35.043 16.6125 34.9962C17.2129 34.9156 17.8067 34.797 18.3897 34.6414V37.8665V37.8988ZM38.775 16.5485H38.4614C37.4446 16.5515 36.4301 16.6378 35.4297 16.8065C34.4734 16.9873 33.5394 17.2574 32.642 17.6128C31.8064 17.9469 31.0215 18.3806 30.3072 18.9028C29.6108 19.4127 29.0204 20.0356 28.5649 20.7411V37.8665H24.2091V13.2589H27.6937L28.5301 17.1613C28.9945 16.5188 29.5319 15.9241 30.133 15.3874C30.7616 14.8246 31.464 14.3371 32.2238 13.9361C33.0472 13.5366 33.9109 13.2125 34.8025 12.9686C35.7594 12.7464 36.743 12.638 37.7296 12.6461H38.8099V16.5162L38.775 16.5485ZM81.0092 33.8029C81.6365 31.9968 82.5076 29.707 83.5879 26.9334L89.0588 13.2589H93.2404L83.2046 37.8665H78.6048L68.5689 13.2589H73.0293L78.326 26.9334C79.3714 29.6102 80.2077 31.9001 80.8698 33.8029H81.0092ZM126.31 37.8665V0.390625H130.526V37.8665H126.31ZM45.1171 20.3219L44.0369 20.0639L43.7581 19.8059V16.5807C46.4964 14.5129 49.8803 13.3144 53.4106 13.1621C55.2747 13.1033 57.1235 13.4922 58.777 14.2909C60.0623 14.9281 61.1257 15.8899 61.8435 17.0645C62.4926 18.2761 62.8153 19.6149 62.7844 20.9669V26.1594V33.8674C62.7148 34.5211 62.798 35.1811 63.0283 35.8025C63.1704 35.9938 63.3621 36.149 63.5859 36.254C63.9497 36.3526 64.3232 36.4174 64.701 36.4475H66.3039L66.513 36.7055V37.7375L66.3039 37.931C64.9449 37.931 63.6904 37.7698 62.5056 37.7698C61.3208 37.7698 60.0664 37.7698 58.4983 37.931L58.0801 37.5763V33.4159L51.9819 37.802C50.8431 38.2573 49.6157 38.4922 48.3753 38.4922C47.1348 38.4922 45.9074 38.2573 44.7686 37.802C43.7413 37.3529 42.8893 36.6207 42.3294 35.7057C41.7217 34.7261 41.4201 33.6096 41.4582 32.4806C41.397 31.3775 41.596 30.2754 42.0413 29.2506C42.4866 28.2259 43.1676 27.3031 44.0369 26.5464C45.7444 25.1273 50.4487 23.934 57.9755 22.9342C58.0835 21.9623 57.9753 20.9801 57.6576 20.0483C57.34 19.1165 56.8197 18.2547 56.1287 17.516C54.7906 16.4593 53.0783 15.8966 51.3198 15.9357C50.3139 15.918 49.3121 16.0598 48.3578 16.355C47.8076 16.5107 47.2893 16.7505 46.8246 17.0645C46.8246 17.258 46.1973 18.3223 45.3262 20.2896H45.1171V20.3219ZM58.1149 24.4178C54.7158 24.7003 51.4051 25.5757 48.3578 26.9979C47.6845 27.5297 47.1567 28.2014 46.8176 28.9581C46.4784 29.7148 46.3375 30.5351 46.4064 31.3518C46.3443 31.8882 46.4139 32.4307 46.6101 32.9387C46.8063 33.4468 47.1241 33.9072 47.5396 34.2855C47.9551 34.6639 48.4577 34.9505 49.0097 35.1238C49.5617 35.2971 50.1489 35.3527 50.7274 35.2864C52.1939 35.1562 53.6118 34.7307 54.8819 34.0399C56.152 33.3491 57.2435 32.4096 58.0801 31.2873V24.4178H58.1149ZM118.992 34.0931L118.086 35.9315C116.506 36.9502 114.75 37.7135 112.894 38.1891C111.563 38.5177 110.194 38.691 108.817 38.7051C106.636 38.7179 104.477 38.3116 102.475 37.5118C100.426 36.6359 98.7219 35.1936 97.5962 33.3836C96.2507 31.2672 95.5858 28.8392 95.6797 26.3851C95.6696 24.7248 95.928 23.0724 96.4463 21.4829C96.7647 20.3433 97.2701 19.2556 97.9447 18.2578C98.6972 17.3338 99.6168 16.5373 100.663 15.9035C101.897 15.0507 103.244 14.3463 104.67 13.8071C106.141 13.2973 107.699 13.0352 109.27 13.0331C111.345 13.0059 113.385 13.5201 115.159 14.5167C116.724 15.3853 117.946 16.6969 118.644 18.2578C119.344 19.7878 119.699 21.4339 119.689 23.0955C119.689 23.6115 119.689 24.1275 119.689 24.6435L119.375 24.9338C117.685 25.2286 115.972 25.4011 114.253 25.4498L109.967 25.6111H101.081C100.958 27.036 101.151 28.4691 101.648 29.8224C102.146 31.1757 102.937 32.4205 103.973 33.4804C104.893 34.3136 105.983 34.9682 107.18 35.4058C108.377 35.8433 109.656 36.0549 110.943 36.0282C112.236 35.9986 113.512 35.7471 114.706 35.2864C116.037 34.8117 117.319 34.2289 118.539 33.5449L118.992 33.9964V34.0931ZM101.081 23.5148L104.949 23.676H109.932C112.511 23.676 114.079 23.676 114.671 23.676V22.7085C114.843 20.5939 114.228 18.4884 112.929 16.742C112.342 16.0974 111.603 15.5852 110.77 15.2443C109.937 14.9034 109.03 14.7428 108.12 14.7747C107.129 14.7341 106.141 14.9118 105.239 15.293C104.336 15.6742 103.544 16.2482 102.928 16.9678C101.552 18.8912 100.903 21.1818 101.081 23.4825V23.5148Z" fill="white"/>
<path id="Vector_2" fill-rule="evenodd" clip-rule="evenodd" d="M142.131 25.8368C142.115 27.1322 142.291 28.4235 142.654 29.6747C142.946 30.7326 143.455 31.7289 144.152 32.6096C144.783 33.3917 145.608 34.0221 146.557 34.4479C147.578 34.8989 148.701 35.12 149.832 35.0929C150.682 35.1081 151.528 34.9993 152.341 34.7704C153.04 34.5589 153.708 34.2663 154.327 33.8996C154.886 33.5948 155.401 33.2264 155.861 32.8031C156.219 32.4754 156.545 32.1193 156.836 31.7388V18.8383C155.945 17.9914 154.894 17.3027 153.735 16.8065C152.556 16.2555 151.257 15.9579 149.937 15.9357C149.044 15.9505 148.161 16.1031 147.323 16.3872C146.367 16.6975 145.506 17.2176 144.814 17.903C143.956 18.7682 143.303 19.7898 142.898 20.9024C142.33 22.448 142.07 24.0763 142.131 25.7078V25.8368ZM137.601 25.8368C137.592 24.306 137.779 22.7795 138.158 21.2894C138.474 20.0875 138.954 18.9278 139.587 17.8385C140.153 16.9238 140.87 16.0967 141.713 15.3874C142.463 14.758 143.294 14.2164 144.187 13.7749C145.015 13.3759 145.893 13.0726 146.8 12.8718C147.623 12.6974 148.465 12.6108 149.309 12.6138C150.768 12.5731 152.218 12.8262 153.561 13.3556C154.785 13.868 155.878 14.6156 156.767 15.5487V0.390625H161.122V37.8665H157.847L156.941 35.0929C156.575 35.5251 156.18 35.9345 155.756 36.3185C155.286 36.7442 154.759 37.1127 154.188 37.415C153.527 37.7499 152.825 38.0097 152.097 38.1891C151.185 38.394 150.248 38.4916 149.309 38.4793C147.861 38.4774 146.424 38.2484 145.058 37.802C143.65 37.3455 142.374 36.5951 141.33 35.609C140.176 34.4834 139.276 33.1569 138.681 31.7066C137.965 29.8334 137.623 27.8555 137.671 25.8691L137.601 25.8368ZM180.149 16.1615C179.188 16.1588 178.238 16.3457 177.361 16.7097C176.514 17.0714 175.746 17.5743 175.096 18.1933C174.448 18.8403 173.918 19.5811 173.528 20.3864C173.138 21.2388 172.891 22.1416 172.796 23.0632H186.421C186.429 22.1459 186.288 21.2327 186.003 20.3541C185.758 19.5617 185.356 18.8181 184.818 18.161C184.286 17.5419 183.606 17.0452 182.832 16.7097C181.997 16.3326 181.077 16.1446 180.149 16.1615ZM182.414 35.0929C183.735 35.1077 185.054 34.9997 186.351 34.7704C187.535 34.5473 188.7 34.2455 189.836 33.8674V37.0925C188.724 37.567 187.554 37.9136 186.351 38.1245C184.867 38.363 183.363 38.4817 181.856 38.4793C180.045 38.4837 178.24 38.2668 176.49 37.8343C174.89 37.4117 173.414 36.6622 172.169 35.6412C170.859 34.578 169.843 33.2399 169.207 31.7388C168.461 29.8721 168.106 27.8909 168.161 25.9013C168.12 23.9153 168.462 21.9384 169.172 20.0639C169.773 18.5417 170.684 17.1403 171.855 15.9357C172.934 14.8572 174.254 14.0097 175.723 13.4524C178.529 12.4658 181.629 12.4658 184.435 13.4524C185.777 13.8857 186.976 14.6296 187.92 15.6132C188.891 16.6538 189.637 17.8584 190.115 19.1608C190.712 20.9678 190.994 22.8512 190.951 24.7403V25.2886C190.951 25.2886 190.951 25.7723 190.951 26.2884H172.692C172.643 27.6458 172.905 28.9974 173.458 30.2553C173.924 31.2844 174.639 32.2004 175.549 32.9321C176.462 33.6107 177.519 34.1051 178.65 34.3834C179.908 34.7152 181.211 34.8781 182.518 34.8672L182.414 35.0929ZM202.52 16.7742C203 16.2019 203.536 15.6727 204.123 15.1939C204.736 14.7023 205.402 14.27 206.11 13.9039C206.864 13.5365 207.658 13.2446 208.479 13.0331C209.416 12.8321 210.375 12.7347 211.337 12.7428C212.517 12.7184 213.694 12.8709 214.821 13.1944C215.851 13.5002 216.792 14.0185 217.574 14.7102C218.397 15.4646 219.028 16.379 219.421 17.387C219.914 18.7032 220.15 20.0902 220.118 21.4829V37.8665H215.762V22.0312C215.926 20.4173 215.456 18.8029 214.438 17.4838C213.948 16.9961 213.346 16.6157 212.677 16.3703C212.008 16.1248 211.288 16.0204 210.57 16.0647C209.042 16.0791 207.548 16.4807 206.249 17.2258C204.849 18.0551 203.66 19.1554 202.764 20.4509V37.8665H198.408V13.2589H201.893L202.52 16.7742Z" fill="white"/>
<path id="Vector_3" fill-rule="evenodd" clip-rule="evenodd" d="M55.8839 64.3098C55.9324 64.4238 55.9324 64.5506 55.8839 64.6646C55.8008 64.7978 55.6949 64.9176 55.5702 65.0193C55.5954 65.1147 55.5954 65.2142 55.5702 65.3096C55.4806 65.342 55.3811 65.342 55.2915 65.3096C55.103 65.3154 54.9153 65.2839 54.741 65.2172C54.5667 65.1504 54.4099 65.05 54.2809 64.9226C53.9515 64.5928 53.7126 64.1946 53.584 63.7615V63.4068C53.5991 63.2674 53.5991 63.1269 53.584 62.9875V62.6005C53.6274 62.454 53.7115 62.3206 53.8279 62.2135C53.9532 62.1803 54.086 62.1803 54.2112 62.2135C54.4854 62.207 54.7553 62.2775 54.9855 62.4156C55.2156 62.5538 55.3952 62.7531 55.5006 62.9875C55.6659 63.2006 55.7843 63.4417 55.849 63.697C55.9016 63.931 55.9016 64.1726 55.849 64.4066L55.8839 64.3098ZM62.4699 64.3098C62.5057 64.4257 62.5057 64.5486 62.4699 64.6646C62.3868 64.7978 62.2809 64.9176 62.1563 65.0193C62.1167 65.132 62.0444 65.2325 61.9472 65.3096C61.9032 65.3274 61.8558 65.3365 61.8078 65.3365C61.7598 65.3365 61.7124 65.3274 61.6684 65.3096C61.4805 65.3115 61.2941 65.2782 61.1204 65.2116C60.9468 65.1451 60.7894 65.0468 60.6579 64.9226C60.3411 64.5895 60.1142 64.1916 59.9958 63.7615V63.4068V62.9875V62.6005C60.0024 62.5232 60.0278 62.4482 60.07 62.3812C60.1122 62.3142 60.1702 62.2569 60.2397 62.2135C60.365 62.1803 60.4977 62.1803 60.623 62.2135C60.8525 62.1662 61.0905 62.1662 61.32 62.2135C61.5684 62.3701 61.7717 62.5804 61.9123 62.8263C62.0777 63.0393 62.1961 63.2804 62.2608 63.5358C62.297 63.7711 62.297 64.01 62.2608 64.2453L62.4699 64.3098ZM69.0908 64.3098C69.1266 64.4257 69.1266 64.5486 69.0908 64.6646C68.9944 64.7982 68.8769 64.9178 68.7423 65.0193C68.7674 65.1147 68.7674 65.2142 68.7423 65.3096C68.6527 65.342 68.5532 65.342 68.4635 65.3096C68.275 65.3154 68.0873 65.2839 67.9131 65.2172C67.7388 65.1504 67.5819 65.05 67.453 64.9226C67.1238 64.5975 66.8951 64.1965 66.7909 63.7615V63.4068C66.806 63.2674 66.806 63.1269 66.7909 62.9875V62.6005C66.8343 62.454 66.9184 62.3206 67.0348 62.2135C67.1601 62.1803 67.2929 62.1803 67.4181 62.2135C67.6593 62.1655 67.9087 62.1655 68.1499 62.2135C68.3865 62.373 68.5778 62.5833 68.7075 62.8263C68.8829 63.038 69.0129 63.2788 69.0908 63.5358C69.127 63.7711 69.127 64.01 69.0908 64.2453V64.3098ZM70.9028 61.0847V60.9234L71.3558 60.4719L71.6346 60.2139H71.983C72.1974 60.1052 72.4185 60.0083 72.6451 59.9236L73.0285 59.5044L73.6557 58.8271H73.8648C73.986 58.7602 74.0924 58.6727 74.1784 58.5691L74.8753 57.9563L75.5374 57.279L76.0601 56.8598L77.1752 55.9567L77.5585 55.7632L78.2206 55.473C78.3464 55.4239 78.4464 55.3314 78.4994 55.215C78.5395 55.0558 78.5395 54.8903 78.4994 54.7312C78.5952 54.5991 78.6769 54.4587 78.7433 54.3119C78.8235 54.1218 78.8932 53.928 78.9524 53.7314C78.9524 53.4412 78.9524 53.2154 79.1615 53.0541V52.6994C79.3357 52.2801 79.5448 51.7963 79.8236 51.2481L80.8341 49.3775C80.8341 49.0227 81.2523 48.6035 81.531 48.152C81.6615 47.9435 81.8554 47.7752 82.0886 47.6682C82.267 47.5381 82.4888 47.4696 82.7158 47.4747C82.7934 47.467 82.8717 47.4814 82.9402 47.516C83.0087 47.5506 83.0641 47.6037 83.0992 47.6682C83.1416 47.8488 83.1416 48.0358 83.0992 48.2164C83.1348 48.592 83.1348 48.9697 83.0992 49.3452C83.0365 49.6781 82.9312 50.0029 82.7855 50.3128C82.7617 50.4083 82.7617 50.5075 82.7855 50.603C82.7662 50.753 82.7662 50.9046 82.7855 51.0546C82.8169 51.1819 82.8169 51.3142 82.7855 51.4416C82.7161 51.5563 82.6343 51.6644 82.5416 51.7641C82.5559 51.8388 82.5559 51.9152 82.5416 51.9898C82.5342 52.0865 82.5342 52.1835 82.5416 52.2801L82.3325 52.5059V52.9574C82.3502 53.0643 82.3502 53.173 82.3325 53.2799L82.0189 53.9249L81.6356 54.6667C81.6111 54.7839 81.6111 54.9043 81.6356 55.0215L81.4614 55.215L81.2523 55.5697V55.86L80.3114 59.0851C80.2912 59.3751 80.2912 59.6659 80.3114 59.9559C80.2859 60.1487 80.2859 60.3436 80.3114 60.5364C80.3114 60.6977 80.3114 60.8912 80.5553 61.0847C80.6673 61.3342 80.8075 61.572 80.9735 61.7942C81.0532 61.9579 81.1876 62.0935 81.3568 62.1812C81.5061 62.2109 81.6605 62.2109 81.8098 62.1812C81.992 62.2296 82.1852 62.2296 82.3674 62.1812C82.5893 62.0606 82.7893 61.9082 82.9598 61.7297C83.0471 61.9672 83.164 62.1945 83.3082 62.407L83.5522 62.9875C83.4298 63.0663 83.3236 63.1645 83.2385 63.2778C83.0056 63.4718 82.7953 63.688 82.6113 63.9228C82.4531 64.0968 82.2491 64.2301 82.0189 64.3098C81.7418 64.3497 81.4597 64.3497 81.1826 64.3098C80.5422 64.3426 79.9108 64.1593 79.4054 63.7938C78.9123 63.3773 78.5816 62.8218 78.4645 62.2135L78.6039 61.0847V60.7944C78.5201 60.5956 78.4025 60.4105 78.2555 60.2462V60.4719L77.8373 60.7622C77.6814 60.9222 77.5415 61.0949 77.4191 61.2782C77.438 61.385 77.438 61.4939 77.4191 61.6007L77.1055 62.0845L76.1647 63.0843L75.2238 64.0841C74.8666 64.4563 74.4563 64.7818 74.0042 65.0516C73.7188 65.243 73.3803 65.355 73.0285 65.3741C72.8373 65.4003 72.6423 65.3852 72.4585 65.3302C72.2747 65.2751 72.1071 65.1815 71.9688 65.0566C71.8305 64.9317 71.7253 64.779 71.6613 64.6103C71.5973 64.4416 71.5762 64.2615 71.5997 64.0841C71.6298 63.7796 71.7246 63.4837 71.8785 63.2133C71.9956 62.9438 72.0775 62.6622 72.1224 62.3747V62.149L70.9028 61.0847ZM78.2555 57.2468V57.0533L77.7328 57.5371L76.9661 58.1176L76.5131 58.7949C76.1928 59.2029 75.8436 59.5907 75.4677 59.9559L74.9799 60.6332C74.7708 60.9879 74.492 61.375 74.1784 61.8587L73.8299 62.536C73.8299 62.536 73.8299 62.536 73.8299 62.7295C74.2333 62.5552 74.5992 62.3148 74.9102 62.02C75.2935 61.6007 75.8162 61.0847 76.4086 60.3752C76.9038 59.7857 77.3466 59.1602 77.7328 58.5046C77.9762 58.1189 78.1305 57.6906 78.1858 57.2468H78.2555ZM83.587 60.4719C83.5107 60.6105 83.4171 60.7404 83.3082 60.8589V61.0524C83.3681 61.2325 83.45 61.4056 83.5522 61.5685C83.6202 61.7155 83.6784 61.8663 83.7264 62.02C83.7403 62.1163 83.7403 62.2139 83.7264 62.3102C83.5237 62.5042 83.3481 62.7209 83.2037 62.9553C83.1558 63.1788 83.1558 63.409 83.2037 63.6325C83.1849 63.8124 83.2061 63.9939 83.266 64.1658C83.326 64.3378 83.4233 64.4965 83.5522 64.6323C83.6912 64.7524 83.8565 64.8434 84.0369 64.899C84.2173 64.9547 84.4085 64.9737 84.5976 64.9548H84.9112L85.4339 64.7291L86.305 64.2453L87.002 63.7938L87.4898 63.3423C87.7852 63.0887 88.0644 62.8194 88.3262 62.536L89.0231 62.0522L89.4761 61.7297C89.527 61.6499 89.5989 61.5833 89.6852 61.5362V61.7942C89.7001 61.8797 89.7001 61.9668 89.6852 62.0522C89.6896 62.6053 89.8987 63.1403 90.2776 63.568C90.471 63.7414 90.7005 63.8765 90.9521 63.9652C91.2037 64.0539 91.4721 64.0943 91.7411 64.0841C92.0057 64.1327 92.278 64.1327 92.5426 64.0841C92.857 63.963 93.1505 63.8001 93.4138 63.6003C93.6593 63.4326 93.8817 63.2376 94.0759 63.0198L94.7379 62.4392C94.6887 62.2503 94.6187 62.0666 94.5289 61.891C94.5289 61.6975 94.3198 61.4717 94.1804 61.1814L93.9713 61.3749L93.7971 61.6007L93.588 61.8265C93.5251 61.9085 93.4413 61.975 93.3441 62.02C93.2654 62.0472 93.1788 62.0472 93.1002 62.02C92.9591 62.0251 92.8188 61.9985 92.6913 61.9423C92.5638 61.8861 92.453 61.8021 92.3684 61.6975C92.2032 61.4567 92.1184 61.1763 92.1244 60.8912C92.1244 60.5042 92.1244 60.0527 92.1244 59.6011C92.1779 59.389 92.1779 59.1683 92.1244 58.9561C92.0735 58.8806 92.0009 58.8195 91.9149 58.7797C91.8288 58.7398 91.7325 58.7228 91.6366 58.7304C91.245 58.7396 90.8667 58.8638 90.5564 59.0851C90.0864 59.3963 89.6644 59.7652 89.3019 60.1817H89.0928H88.8837L88.4307 60.5364L87.6292 61.2137C87.3926 61.4374 87.1362 61.6424 86.8626 61.8265C86.6533 61.9722 86.4172 62.0815 86.1657 62.149L86.8278 61.2782L87.2111 60.8267C87.664 60.4737 88.0945 60.0968 88.5004 59.6979C88.7543 59.4738 88.9662 59.2122 89.1276 58.9239C89.3238 58.8081 89.5102 58.6787 89.6852 58.5368L89.964 58.2788L90.2079 57.9886C90.4789 57.7899 90.7351 57.5744 90.9745 57.3435C91.191 57.1558 91.3893 56.9507 91.5669 56.7308L92.3335 56.2148C92.4949 56.1273 92.6182 55.9904 92.682 55.8277C92.7221 55.6686 92.7221 55.5031 92.682 55.344C92.7186 55.2793 92.7378 55.2074 92.7378 55.1343C92.7378 55.0613 92.7186 54.9894 92.682 54.9247C92.5021 54.8629 92.3043 54.8629 92.1244 54.9247C91.5219 54.9804 90.9454 55.1805 90.4518 55.5052C89.6082 56.0064 88.8254 56.5903 88.1171 57.2468C87.9508 57.4075 87.7635 57.5483 87.5595 57.6661L87.1762 57.9241C86.9765 58.0593 86.79 58.2104 86.6187 58.3756L86.2702 58.7304C86.132 58.7753 86.0025 58.8407 85.8869 58.9239L85.643 59.2141L85.399 59.5689L84.0749 60.3752L83.587 60.4719ZM94.3198 61.0524L94.7728 60.4719C95.4022 60.0049 95.9853 59.4868 96.5151 58.9239C96.9109 58.5008 97.2502 58.0352 97.5257 57.5371V56.8598C97.754 56.5247 98.0802 56.2563 98.4665 56.0858C98.7623 55.8413 99.1232 55.6744 99.512 55.602C99.8271 55.5834 100.138 55.6756 100.383 55.86L101.045 56.4083L101.254 56.5695C101.665 56.8518 101.97 57.2468 102.125 57.6983C102.351 58.2545 102.458 58.846 102.439 59.4399C102.378 59.9749 102.225 60.4975 101.986 60.9879C101.728 61.4605 101.574 61.9757 101.533 62.5037C101.68 62.5504 101.839 62.5504 101.986 62.5037C102.19 62.386 102.377 62.2451 102.544 62.0845L103.484 61.3104C103.689 61.2829 103.881 61.2049 104.042 61.0847C104.12 61.2839 104.213 61.4779 104.321 61.6652L104.634 62.3425L104.356 62.6005L103.937 62.923L102.648 63.7615L100.766 64.8581C100.546 64.9688 100.312 65.0554 100.07 65.1161C99.7733 65.1932 99.4597 65.1932 99.1635 65.1161C99.0605 65.0615 98.9764 64.981 98.9209 64.884C98.8654 64.7869 98.8408 64.6773 98.8499 64.5678C98.8366 64.4607 98.8366 64.3525 98.8499 64.2453C98.8356 64.1059 98.8356 63.9655 98.8499 63.826L99.059 63.439C99.065 63.3208 99.065 63.2024 99.059 63.0843C99.2561 62.5671 99.419 62.0394 99.5468 61.504C99.6502 61.0693 99.7085 60.6265 99.721 60.1817C99.7347 59.8138 99.6509 59.4484 99.4771 59.1174C99.4018 58.9943 99.2964 58.8894 99.1693 58.811C99.0422 58.7325 98.897 58.6828 98.7453 58.6658C98.5026 58.8021 98.2698 58.9529 98.0484 59.1174C97.7757 59.3489 97.5196 59.5967 97.2818 59.8591C97.0509 60.1472 96.7944 60.4168 96.5151 60.6654C96.3507 60.828 96.1632 60.969 95.9576 61.0847C95.8518 61.2593 95.7097 61.4127 95.5394 61.5362C95.3042 61.742 95.0474 61.9257 94.7728 62.0845V62.278V62.5037C94.6948 62.2939 94.6016 62.0892 94.494 61.891L94.1804 61.2459L94.3198 61.0524ZM104.042 61.0524C104.042 61.375 104.321 61.6007 104.425 61.7942C104.509 61.9612 104.579 62.1337 104.634 62.3102C104.721 62.1979 104.827 62.0997 104.948 62.02C105.038 61.9905 105.137 61.9905 105.227 62.02C105.227 62.02 105.227 62.02 105.471 62.02C105.586 62.1402 105.67 62.2838 105.715 62.4392C105.715 62.6972 105.924 62.923 106.028 63.0843C106.107 63.2391 106.213 63.3808 106.342 63.5035C106.54 63.6865 106.778 63.8292 107.039 63.9228C107.35 63.9748 107.669 63.9748 107.98 63.9228H108.677C108.87 63.8779 109.057 63.813 109.234 63.7293C109.672 63.7088 110.095 63.5747 110.454 63.3423C111.011 63.0107 111.526 62.6212 111.987 62.1812L111.743 61.633C111.743 61.4394 111.534 61.1814 111.43 60.9234L111.081 61.1492H110.872C110.607 61.2928 110.326 61.4117 110.036 61.504L108.99 61.6652H108.363L108.015 61.504C107.874 61.4177 107.764 61.294 107.701 61.1492C107.645 60.9921 107.645 60.8225 107.701 60.6654C107.685 60.5693 107.685 60.4713 107.701 60.3752V60.1172C108.409 59.5241 109.062 58.8768 109.652 58.1821C110.035 57.7337 110.341 57.2333 110.558 56.6985V56.247C110.558 56.0535 110.558 55.8922 110.558 55.7955C110.527 55.5922 110.527 55.386 110.558 55.1827C110.5 55.0069 110.43 54.8345 110.349 54.6667C110.38 54.5611 110.38 54.4498 110.349 54.3442C110.254 54.2294 110.119 54.1495 109.966 54.1184C109.771 54.0811 109.569 54.0811 109.374 54.1184H108.886H108.502C108.388 54.2121 108.259 54.2883 108.119 54.3442L107.771 54.5699L107.109 55.3117L106.481 56.0212C106.251 56.3371 106.053 56.6718 105.889 57.021C105.889 57.3113 105.61 57.5693 105.506 57.7628L105.297 58.3111C105.297 58.4723 105.297 58.6336 105.297 58.7626C105.314 58.9342 105.314 59.107 105.297 59.2786V59.8269C105.041 59.9956 104.808 60.1903 104.6 60.4074C104.435 60.5803 104.284 60.7635 104.147 60.9557L104.042 61.0524ZM108.711 56.6985C108.727 56.7623 108.727 56.8283 108.711 56.892C108.743 57.0194 108.743 57.1517 108.711 57.279C108.643 57.422 108.549 57.5529 108.433 57.6661L108.154 57.9563L107.84 58.2466L107.631 58.5368C107.631 58.5368 107.631 58.6981 107.387 58.6981H107.213C107.282 58.2716 107.475 57.8703 107.771 57.5371C108.119 57.021 108.433 56.763 108.642 56.763L108.711 56.6985ZM118.852 61.0847L119.096 60.8267L119.409 60.4397C120.17 59.8048 120.848 59.0905 121.431 58.3111C122.156 57.4223 122.808 56.4844 123.382 55.5052C123.491 55.3867 123.584 55.2568 123.661 55.1182C123.779 54.9201 123.883 54.7154 123.974 54.5054H123.521H123.243H120.629H120.385C120.305 54.5232 120.221 54.5232 120.141 54.5054H119.862C119.846 54.4697 119.838 54.4313 119.838 54.3926C119.838 54.3538 119.846 54.3154 119.862 54.2797C119.845 53.8308 119.916 53.3828 120.072 52.9574C120.072 52.6671 120.385 52.5059 120.664 52.5059H121.431H122.093H122.476H123.138H123.591H123.94H124.358H124.846C125.159 52.5059 125.542 52.0221 125.926 51.1836C126.309 50.345 126.692 49.8935 127.145 49.8935C127.246 49.8897 127.346 49.9082 127.436 49.9475C127.527 49.9868 127.607 50.0457 127.668 50.1193C127.744 50.1978 127.801 50.2898 127.837 50.3896C127.873 50.4894 127.887 50.595 127.877 50.6998C127.863 50.9783 127.792 51.2518 127.668 51.5061C127.573 51.7576 127.503 52.0167 127.459 52.2801V52.4736C127.48 52.5803 127.48 52.6895 127.459 52.7961C127.483 53.2043 127.483 53.6135 127.459 54.0217C127.459 54.3119 127.459 54.4732 127.215 54.4732L126.205 54.6667C126.205 54.6667 126.205 54.8925 126.205 55.0215V55.4407C126.205 55.8922 125.856 56.4728 125.647 57.15C125.438 57.8273 125.194 58.6658 124.95 59.6011C124.706 60.5364 124.671 60.9557 124.602 61.4395C124.582 61.751 124.582 62.0632 124.602 62.3747C124.602 62.536 124.602 62.6327 124.602 62.6972C124.633 62.7142 124.669 62.7232 124.706 62.7232C124.743 62.7232 124.779 62.7142 124.811 62.6972C124.811 62.6972 125.089 62.6973 125.438 62.3102L126.971 61.1492L127.529 62.407L127.111 62.7618C126.914 62.9167 126.704 63.0569 126.483 63.181C126.387 63.3147 126.269 63.4343 126.135 63.5358L125.647 63.955L125.124 64.5033L124.602 65.0193C124.427 65.2366 124.201 65.4133 123.94 65.5354C123.732 65.5712 123.52 65.5712 123.312 65.5354C123.132 65.5449 122.951 65.5181 122.782 65.4568C122.614 65.3956 122.462 65.3014 122.337 65.1806C122.1 64.871 121.989 64.4942 122.023 64.1163C122.023 63.568 122.023 63.1165 122.023 62.7295C122.04 62.4201 122.111 62.1152 122.232 61.8265C122.232 61.8265 122.232 61.6652 122.232 61.633C122.217 61.5043 122.217 61.3746 122.232 61.2459C122.232 61.2459 122.232 60.9234 122.232 60.7299L122.441 59.6656L122.755 58.9884C122.582 59.2418 122.384 59.4794 122.162 59.6979C121.913 59.961 121.645 60.2088 121.361 60.4397L119.828 61.762C119.84 61.8368 119.84 61.9129 119.828 61.9877L119.584 62.3102C119.573 62.1707 119.573 62.0305 119.584 61.891C119.476 61.708 119.394 61.5129 119.34 61.3104L118.852 61.0847ZM126.936 61.0847L127.25 61.7297C127.25 61.9232 127.424 62.149 127.529 62.3425C127.539 62.2568 127.539 62.1702 127.529 62.0845C127.802 61.9119 128.058 61.7176 128.295 61.504C128.504 61.504 128.609 61.3104 128.679 61.3104C128.69 61.5146 128.69 61.7191 128.679 61.9232C128.636 62.2121 128.636 62.5051 128.679 62.794C128.675 63.0651 128.732 63.3339 128.846 63.5837C128.96 63.8334 129.128 64.0587 129.341 64.2453C129.523 64.4495 129.752 64.6134 130.011 64.725C130.27 64.8366 130.553 64.8931 130.839 64.8903H131.188H131.466C131.639 64.9208 131.816 64.9208 131.989 64.8903C132.231 64.8278 132.464 64.7413 132.686 64.6323C133.084 64.4717 133.458 64.2659 133.801 64.0195C134.144 63.7931 134.449 63.5215 134.707 63.2133C134.769 63.3765 134.878 63.5213 135.021 63.6325C135.203 63.6809 135.396 63.6809 135.578 63.6325C135.774 63.6659 135.975 63.6659 136.171 63.6325C136.409 63.5504 136.624 63.4179 136.798 63.2455L137.355 62.8585L137.843 62.4392C137.765 62.2294 137.672 62.0247 137.565 61.8265C137.565 61.6007 137.565 61.3749 137.286 61.1814L136.972 61.4072H136.728C136.715 61.3325 136.715 61.2562 136.728 61.1814C136.865 61.0781 136.973 60.9452 137.042 60.7944C137.172 60.5795 137.277 60.3525 137.355 60.1172C137.452 59.9105 137.522 59.694 137.565 59.4721C137.58 59.2896 137.58 59.1063 137.565 58.9239C137.613 58.2746 137.429 57.6287 137.042 57.0855C136.84 56.8818 136.591 56.7235 136.313 56.6229C136.035 56.5222 135.736 56.4819 135.439 56.505H134.986L133.975 56.8598C133.975 56.634 134.184 56.4405 134.254 56.247C134.324 56.0535 134.254 56.247 134.08 56.0212H133.592C133.42 55.9882 133.242 55.9882 133.069 56.0212C132.894 56.0989 132.73 56.1964 132.581 56.3115L132.163 56.7308L131.78 57.1178L131.397 57.4403L130.979 57.7628L130.595 58.1498C130.487 58.2379 130.404 58.3484 130.351 58.4723L129.271 59.3431L128.644 59.9236L127.389 60.4397L127.145 60.7944L126.936 61.0202V61.0847ZM133.906 58.6658H134.603H134.951C135.037 58.752 135.107 58.8499 135.16 58.9561C135.273 59.1597 135.355 59.3767 135.404 59.6011L135.16 60.3752C135.169 60.5255 135.169 60.6763 135.16 60.8267C135.118 60.9292 135.046 61.0187 134.951 61.0847L134.533 61.5685C134.248 61.9633 133.895 62.312 133.488 62.6005C133.122 62.8424 132.682 62.967 132.233 62.9553C132.12 62.9642 132.006 62.9516 131.898 62.9183C131.79 62.885 131.691 62.8318 131.606 62.7618C131.462 62.6111 131.387 62.4144 131.397 62.2135C131.382 62.0417 131.382 61.8692 131.397 61.6975L131.641 60.9879C131.714 60.7407 131.82 60.5025 131.954 60.2784C131.98 60.2117 132.022 60.1511 132.076 60.101C132.13 60.0508 132.196 60.0123 132.268 59.9881C132.405 60.0196 132.549 60.0196 132.686 59.9881C132.822 59.9433 132.942 59.8653 133.035 59.7624L133.488 59.0851L133.766 58.7626L133.906 58.6658Z" fill="white"/>
<path id="Vector_4" fill-rule="evenodd" clip-rule="evenodd" d="M144.814 61.0847V60.9234L145.267 60.4719L145.546 60.2139H145.895L146.557 59.9236H146.766C146.853 59.7653 146.971 59.6232 147.114 59.5044L147.742 58.8271H147.951C148.072 58.7602 148.178 58.6727 148.264 58.5691L148.961 57.9563L149.623 57.279L150.181 56.8598L151.261 55.9567L151.644 55.7632L152.307 55.473C152.433 55.413 152.541 55.3242 152.62 55.215C152.642 55.0543 152.642 54.8918 152.62 54.7312C152.729 54.6067 152.812 54.4645 152.864 54.3119C153.023 53.8985 153.163 53.4788 153.282 53.0541V52.6994C153.282 52.2801 153.666 51.7963 153.944 51.2481C154.223 50.6998 154.572 50.087 154.955 49.3775C155.338 48.668 155.373 48.6035 155.652 48.152C155.782 47.9435 155.976 47.7752 156.209 47.6682C156.392 47.5465 156.611 47.479 156.837 47.4747C156.914 47.467 156.992 47.4814 157.061 47.516C157.129 47.5506 157.185 47.6037 157.22 47.6682C157.279 47.8468 157.279 48.0378 157.22 48.2164C157.256 48.592 157.256 48.9697 157.22 49.3452C157.171 49.681 157.065 50.0075 156.906 50.3128C156.882 50.4083 156.882 50.5075 156.906 50.603C156.906 50.603 156.906 50.8933 156.906 51.0546C156.938 51.1819 156.938 51.3142 156.906 51.4416C156.837 51.5564 156.755 51.6644 156.662 51.7641C156.677 51.8388 156.677 51.9152 156.662 51.9898C156.662 51.9898 156.662 52.1511 156.662 52.2801L156.453 52.5059C156.434 52.5801 156.434 52.6574 156.453 52.7316V52.9574C156.471 53.0643 156.471 53.173 156.453 53.2799L156.14 53.9249C156.14 54.2474 155.861 54.4732 155.756 54.6667C155.748 54.7848 155.748 54.9033 155.756 55.0215C155.742 55.0853 155.742 55.1511 155.756 55.215L155.512 55.5697V55.86L154.572 59.0851C154.572 59.4399 154.572 59.7301 154.572 59.9559C154.546 60.1487 154.546 60.3436 154.572 60.5364C154.572 60.6977 154.572 60.8912 154.815 61.0847C154.966 61.0885 155.117 61.0885 155.268 61.0847C155.359 61.2413 155.491 61.3743 155.652 61.4717C155.812 61.505 155.979 61.505 156.14 61.4717C156.323 61.5127 156.514 61.5127 156.697 61.4717C156.901 61.3412 157.088 61.1897 157.255 61.0202C157.357 61.2518 157.474 61.4779 157.603 61.6975C157.699 61.8853 157.781 62.0793 157.847 62.278L157.534 62.5682C157.31 62.7707 157.1 62.9861 156.906 63.2133C156.756 63.3949 156.549 63.5298 156.314 63.6003C156.037 63.6402 155.755 63.6402 155.478 63.6003C154.837 63.6331 154.206 63.4498 153.7 63.0843C153.207 62.6677 152.877 62.1122 152.76 61.504V61.1169V60.8267C152.676 60.6279 152.558 60.4428 152.411 60.2784V60.5042C152.267 60.5811 152.138 60.6791 152.028 60.7944C151.86 60.9532 151.708 61.1259 151.575 61.3104V61.633L151.226 62.1167L150.285 63.1165L149.345 64.1163C148.995 64.4958 148.584 64.8223 148.125 65.0838C147.852 65.2744 147.525 65.3866 147.184 65.4064C146.984 65.4263 146.782 65.408 146.59 65.3525C146.398 65.2971 146.221 65.2056 146.069 65.0838C145.83 64.8125 145.717 64.4645 145.755 64.1163C145.77 63.8134 145.853 63.5167 145.999 63.2455C146.133 62.9814 146.216 62.6976 146.243 62.407V62.1812L144.814 61.0847ZM152.167 57.2468V57.0533L151.644 57.5371L150.878 58.1176C150.744 58.3529 150.593 58.5792 150.425 58.7949C150.104 59.2029 149.755 59.5907 149.379 59.9559C149.204 60.1738 149.041 60.3998 148.892 60.6332C148.682 60.9879 148.404 61.375 148.09 61.8587L147.776 62.536C147.776 62.536 147.776 62.536 147.776 62.7295C148.185 62.5635 148.553 62.3221 148.857 62.02C149.275 61.6007 149.763 61.0847 150.355 60.3752C150.85 59.7857 151.293 59.1602 151.679 58.5046C151.94 58.1265 152.096 57.6943 152.132 57.2468H152.167ZM157.115 61.0847L157.359 61.6652C157.368 61.8048 157.368 61.9448 157.359 62.0845C157.656 61.7685 157.983 61.4771 158.335 61.2137C158.502 61.053 158.723 60.9505 158.962 60.9234C159.049 60.9541 159.123 61.0109 159.171 61.0847C159.287 61.228 159.392 61.3789 159.485 61.5362L159.729 61.891C159.804 61.966 159.863 62.0535 159.903 62.149C160.06 62.7303 160.358 63.2708 160.774 63.7293C161.313 63.9772 161.918 64.0778 162.517 64.0195C162.738 63.9961 162.952 63.9302 163.144 63.826C163.497 63.6453 163.834 63.4405 164.154 63.2133L165.095 62.5682L165.688 62.0845L165.095 60.8267L164.642 61.2137L164.189 61.5362C164.023 61.6707 163.835 61.7796 163.632 61.8587H163.074H162.726C162.676 61.8449 162.631 61.82 162.595 61.7862C162.558 61.7524 162.532 61.7109 162.517 61.6652C162.392 61.4665 162.309 61.2476 162.273 61.0202C162.215 60.7459 162.133 60.4763 162.029 60.2139C162.048 59.9347 162.048 59.6546 162.029 59.3754C162.029 59.0851 162.029 58.7949 162.029 58.5046C161.952 58.2262 161.781 57.9777 161.541 57.7951C161.291 57.6482 161.001 57.5699 160.705 57.5693C160.579 57.5361 160.446 57.5361 160.321 57.5693C160.173 57.642 160.051 57.7544 159.973 57.8918C159.569 58.3639 159.113 58.7962 158.614 59.1819C158.105 59.5693 157.638 60.0013 157.22 60.4719V61.0847H157.115ZM163.214 50.4418C163.382 50.3822 163.568 50.3822 163.736 50.4418C163.767 50.5023 163.783 50.5684 163.783 50.6353C163.783 50.7022 163.767 50.7683 163.736 50.8288C163.736 51.0868 163.736 51.2803 163.736 51.4416L163.457 52.2478C163.479 52.3977 163.479 52.5495 163.457 52.6994C163.375 52.889 163.257 53.0636 163.109 53.2154C162.962 53.386 162.77 53.5192 162.551 53.6024C162.385 53.7369 162.197 53.8458 161.994 53.9249C161.891 53.9495 161.783 53.9495 161.68 53.9249H160.774C160.626 53.8462 160.515 53.72 160.461 53.5701C160.417 53.3245 160.417 53.074 160.461 52.8284C160.514 52.4448 160.711 52.0908 161.018 51.8286C161.229 51.5015 161.565 51.2597 161.959 51.1513L162.517 50.5063H162.9H163.457L163.214 50.4418ZM165.479 61.0847C165.532 60.9327 165.615 60.7907 165.722 60.6654C165.891 60.4934 166.091 60.3513 166.315 60.2462L167.047 59.7624C167.181 59.6998 167.3 59.6119 167.395 59.5044V59.2786L167.778 58.9884C167.969 58.8548 168.144 58.7035 168.301 58.5368L168.545 58.3111L168.754 57.9886L169.207 57.6661L169.765 57.1823L170.601 56.376C170.921 56.0595 171.259 55.7581 171.612 55.473H171.96H172.309C172.662 55.4482 173.012 55.5523 173.284 55.7632C173.394 55.8702 173.479 55.9971 173.533 56.1359C173.587 56.2747 173.609 56.4223 173.598 56.5695C173.612 56.7197 173.612 56.8708 173.598 57.021C173.598 57.2468 173.598 57.5048 173.598 57.8273C173.529 58.3809 173.424 58.9301 173.284 59.4721C173.284 59.6656 173.04 60.2784 172.692 61.3427C172.599 61.543 172.518 61.7475 172.448 61.9555C172.36 62.2719 172.256 62.5841 172.134 62.8908C172.134 62.8908 172.134 62.8908 172.483 62.6972C172.736 62.5386 172.97 62.3548 173.18 62.149L173.981 61.504L174.364 61.2137C174.456 61.4443 174.561 61.6704 174.678 61.891C174.774 62.0788 174.856 62.2728 174.922 62.4715L174.574 62.6972C174.462 62.7898 174.368 62.8988 174.295 63.0198L173.598 63.439C173.306 63.6252 173.003 63.7974 172.692 63.955C172.511 64.1424 172.313 64.3151 172.099 64.4711L171.263 65.1161H170.984C170.875 65.2595 170.746 65.3895 170.601 65.5031C170.514 65.5889 170.406 65.655 170.287 65.6966H169.8H169.312C169.312 65.6966 169.312 65.6966 169.068 65.6966C169.032 65.5807 169.032 65.4578 169.068 65.3418C168.904 65.0812 168.787 64.7982 168.719 64.5033C168.666 64.1611 168.666 63.8135 168.719 63.4713V63.2133C168.736 63.1496 168.736 63.0834 168.719 63.0198V62.6005C168.714 62.4699 168.743 62.34 168.803 62.2221C168.864 62.1041 168.955 62.0015 169.068 61.9232C169.17 61.8348 169.291 61.7665 169.423 61.7221C169.554 61.6778 169.694 61.6585 169.834 61.6652C169.901 61.6662 169.966 61.685 170.022 61.7193C170.078 61.7536 170.121 61.802 170.148 61.8587V62.0845C170.148 62.0845 170.148 62.0845 170.357 61.6975C170.449 61.3467 170.518 60.9913 170.566 60.6332C170.594 60.2681 170.594 59.9017 170.566 59.5366C170.581 59.3003 170.581 59.0634 170.566 58.8271C170.586 58.7421 170.586 58.6541 170.566 58.5691C170.566 58.5691 170.566 58.5691 170.287 58.5691C170.009 58.5691 169.765 58.8271 169.068 59.3754C168.371 59.9236 167.395 60.6977 166.175 61.762V62.02L165.932 62.3425C165.876 62.166 165.806 61.9935 165.722 61.8265C165.722 61.633 165.479 61.4072 165.339 61.0847H165.479ZM174.608 61.0847L174.922 61.7297C175.03 61.928 175.123 62.1327 175.201 62.3425C175.201 62.3425 175.201 62.5037 175.201 62.6972C175.176 62.8036 175.176 62.9134 175.201 63.0198C175.18 63.2451 175.18 63.4717 175.201 63.697C175.171 63.8462 175.171 63.9993 175.201 64.1486C175.282 64.2923 175.388 64.4229 175.514 64.5356L176.072 64.9548L176.804 65.4386H177.187H177.675C178.425 65.4574 179.171 65.3368 179.87 65.0838C180.508 64.8637 181.09 64.5232 181.578 64.0841C181.689 63.961 181.818 63.8525 181.961 63.7615C182.419 63.5909 182.843 63.3511 183.216 63.052L184.331 62.2135L183.703 60.9557C183.459 61.1492 183.285 61.3427 183.111 61.504L182.693 61.9232H182.484L181.438 62.536L180.428 63.0843L179.661 63.2778H179.069L178.442 63.0843H178.023C177.903 62.974 177.808 62.8423 177.745 62.6972C177.705 62.5272 177.705 62.3513 177.745 62.1812C177.724 61.9343 177.724 61.6864 177.745 61.4395C177.805 61.2492 177.887 61.0654 177.989 60.8912L178.337 60.5364L178.999 60.0204L180.358 59.0206C180.582 58.8772 180.792 58.7152 180.985 58.5368L181.613 58.2143L182.24 57.9241C182.524 57.7933 182.774 57.6061 182.972 57.3758C183.135 57.1705 183.221 56.9212 183.216 56.6663V55.9245C183.247 55.841 183.247 55.75 183.216 55.6665C183.16 55.6452 183.101 55.6342 183.041 55.6342C182.981 55.6342 182.922 55.6452 182.867 55.6665C182.389 55.7008 181.925 55.833 181.508 56.0535C181.078 56.2319 180.688 56.4835 180.358 56.7953L179.452 57.279C179.099 57.4834 178.761 57.7097 178.442 57.9563L176.664 59.3754L176.211 59.6656L175.758 59.9559C175.559 60.0911 175.372 60.2422 175.201 60.4074C175.112 60.5151 175.041 60.6347 174.992 60.7622L174.608 61.0847ZM183.808 61.0847L184.017 60.8589L184.261 60.5042L185.376 59.7946L186.003 59.2141L187.084 58.3433C187.136 58.2194 187.22 58.1089 187.327 58.0208L187.711 57.6338L188.129 57.3113L188.512 56.9888L188.896 56.6018L189.314 56.1825C189.468 56.0745 189.631 55.9775 189.802 55.8922H190.324H190.812C190.812 55.8922 190.812 55.8922 190.812 56.118C190.812 56.3438 190.812 56.505 190.533 56.7308L191.544 56.376H191.997C192.294 56.3529 192.593 56.3932 192.871 56.4939C193.149 56.5945 193.398 56.7528 193.6 56.9565C193.987 57.4997 194.171 58.1456 194.123 58.7949C194.138 58.9773 194.138 59.1606 194.123 59.3431C194.08 59.565 194.01 59.7815 193.913 59.9881C193.866 60.233 193.758 60.4645 193.6 60.6654C193.632 60.8036 193.632 60.9465 193.6 61.0847C193.586 61.1594 193.586 61.2357 193.6 61.3104C193.633 61.3248 193.668 61.3322 193.704 61.3322C193.741 61.3322 193.776 61.3248 193.809 61.3104H194.018L194.332 61.0847C194.445 61.2915 194.539 61.5073 194.61 61.7297C194.718 61.928 194.811 62.1327 194.889 62.3425L194.401 62.7618L193.879 63.1488C193.687 63.3158 193.462 63.4472 193.217 63.5358C193.032 63.5666 192.843 63.5666 192.659 63.5358C192.463 63.5524 192.267 63.5072 192.103 63.4077C191.938 63.3082 191.815 63.1601 191.753 62.9875C191.495 63.2957 191.19 63.5673 190.847 63.7938C190.509 64.0469 190.134 64.2533 189.732 64.4066C189.51 64.5155 189.277 64.602 189.035 64.6646C188.862 64.6951 188.685 64.6951 188.512 64.6646H188.233H187.885C187.599 64.6651 187.317 64.6076 187.058 64.4961C186.799 64.3847 186.57 64.222 186.387 64.0195C186.174 63.8329 186.006 63.6077 185.892 63.3579C185.778 63.1082 185.721 62.8393 185.724 62.5682C185.682 62.2793 185.682 61.9864 185.724 61.6975C185.736 61.4933 185.736 61.2888 185.724 61.0847C185.724 61.0847 185.724 61.0847 185.376 61.2782L184.575 61.8587C184.585 61.9444 184.585 62.031 184.575 62.1167C184.497 61.9069 184.403 61.7022 184.296 61.504L183.982 60.8589L183.808 61.0847ZM190.777 58.6658H190.568L190.289 58.9884L189.836 59.6656C189.744 59.7686 189.624 59.8466 189.488 59.8914C189.352 59.929 189.206 59.929 189.07 59.8914C188.998 59.9155 188.932 59.9541 188.878 60.0042C188.824 60.0544 188.782 60.115 188.756 60.1817C188.622 60.4058 188.516 60.644 188.443 60.8912L188.199 61.6007C188.182 61.7724 188.182 61.945 188.199 62.1167C188.123 62.2928 188.123 62.489 188.199 62.665C188.283 62.735 188.383 62.7883 188.491 62.8216C188.599 62.8548 188.713 62.8674 188.826 62.8585C189.275 62.8702 189.715 62.7456 190.08 62.5037C190.488 62.2152 190.841 61.8665 191.126 61.4717L191.544 60.9879C191.544 60.9879 191.544 60.9879 191.753 60.7299C191.762 60.5795 191.762 60.4288 191.753 60.2784L191.997 59.5044C191.948 59.28 191.866 59.0629 191.753 58.8594C191.7 58.7532 191.629 58.6552 191.544 58.5691H191.195H190.499L190.777 58.6658ZM194.262 61.0847L194.61 61.762C194.707 61.9498 194.788 62.1438 194.854 62.3425L196.109 61.1169L196.632 60.6654V60.9557C196.632 60.9557 196.632 61.1492 196.632 61.3427V62.0522V62.6327C196.642 62.7723 196.642 62.9124 196.632 63.052C196.647 63.1698 196.647 63.289 196.632 63.4068C196.6 63.9768 196.732 64.5444 197.015 65.0516C197.148 65.2338 197.331 65.3803 197.546 65.4766C197.76 65.5728 197.997 65.6153 198.234 65.5999C198.383 65.6328 198.539 65.6328 198.687 65.5999C198.827 65.5308 198.947 65.4311 199.036 65.3096L199.35 64.9871L199.663 64.6646C200.041 64.3471 200.391 64.0019 200.709 63.6325C200.883 63.4034 200.991 63.137 201.022 62.8585C201.327 62.4606 201.595 62.0399 201.824 61.6007C202.102 61.2209 202.324 60.8088 202.486 60.3752L202.695 59.6334C202.935 59.3283 203.123 58.9912 203.252 58.6336C203.38 58.3693 203.451 58.0845 203.461 57.7951C203.658 57.4469 203.81 57.079 203.914 56.6985C204.021 56.341 204.08 55.9727 204.089 55.602C204.113 55.5284 204.113 55.4498 204.089 55.3762C204.057 55.3592 204.021 55.3503 203.984 55.3503C203.947 55.3503 203.911 55.3592 203.88 55.3762C203.722 55.3733 203.565 55.4072 203.425 55.4748C203.285 55.5424 203.166 55.6416 203.078 55.7632C202.835 56.1113 202.691 56.5108 202.66 56.9243C202.543 57.3639 202.392 57.795 202.207 58.2143C201.963 58.7949 201.58 59.5044 201.092 60.4074C200.604 61.3104 200.186 62.02 199.872 62.4715C199.559 62.923 199.245 63.1488 199.071 63.1488C198.897 63.1488 198.792 62.8908 198.722 62.3425C198.652 61.5483 198.652 60.7501 198.722 59.9559C198.739 59.8597 198.739 59.7618 198.722 59.6656C198.722 59.6656 198.722 59.6656 198.722 59.4399C198.75 59.1717 198.75 58.9017 198.722 58.6336V57.3758C198.749 57.1184 198.749 56.8592 198.722 56.6018C198.722 56.6018 198.722 56.3438 198.409 56.3438C198.146 56.4394 197.899 56.5698 197.677 56.7308C197.442 56.848 197.23 57.0006 197.05 57.1823C196.895 57.5451 196.721 57.9004 196.527 58.2466C196.408 58.524 196.268 58.7934 196.109 59.0529C196.004 59.2583 195.875 59.4529 195.726 59.6334C195.514 59.8864 195.281 60.1236 195.029 60.3429C194.818 60.5473 194.62 60.7627 194.436 60.9879L194.157 61.3427L194.262 61.0847ZM204.054 61.0847C204.191 60.8925 204.342 60.7093 204.507 60.5364C204.715 60.3193 204.949 60.1246 205.204 59.9559V59.4076C205.204 59.2464 205.204 59.0529 205.204 58.8916C205.177 58.7421 205.177 58.5896 205.204 58.4401C205.248 58.2498 205.318 58.0655 205.413 57.8918C205.413 57.6983 205.622 57.4403 205.761 57.15C205.926 56.8008 206.124 56.4661 206.354 56.1503L206.981 55.4407C207.22 55.2082 207.442 54.9604 207.643 54.6989L207.992 54.4732C208.132 54.4173 208.261 54.3411 208.375 54.2474H208.793H209.246C209.441 54.2101 209.643 54.2101 209.838 54.2474C209.916 54.2581 209.99 54.2836 210.056 54.3225C210.122 54.3614 210.179 54.4128 210.222 54.4732C210.314 54.5665 210.385 54.6762 210.431 54.7957V55.3117V55.9245C210.431 55.9245 210.431 56.1825 210.431 56.376V56.8275C210.213 57.3623 209.908 57.8627 209.525 58.3111C208.938 58.9984 208.297 59.6451 207.608 60.2462C207.591 60.3314 207.591 60.4189 207.608 60.5042C207.576 60.5986 207.576 60.7 207.608 60.7944C207.568 60.9535 207.568 61.1191 207.608 61.2782C207.672 61.423 207.781 61.5467 207.922 61.633L208.27 61.7942H208.898L209.943 61.633C210.234 61.5407 210.514 61.4218 210.779 61.2782H210.988L211.337 61.0524C211.337 61.3105 211.581 61.5685 211.65 61.762L211.894 62.3102C211.444 62.7486 210.941 63.1382 210.396 63.4713C210.024 63.7047 209.59 63.8387 209.141 63.8583C208.964 63.942 208.777 64.0069 208.584 64.0518H207.887C207.576 64.1038 207.257 64.1038 206.946 64.0518C206.685 63.9582 206.448 63.8155 206.249 63.6325C206.12 63.5098 206.014 63.3681 205.936 63.2133L205.657 62.5682C205.588 62.4159 205.494 62.2744 205.378 62.149C205.378 62.149 205.378 62.149 205.134 62.149C205.044 62.1195 204.946 62.1195 204.855 62.149L204.542 62.4392C204.486 62.2627 204.416 62.0902 204.333 61.9232L204.054 61.0847ZM208.723 56.7308C208.514 56.7308 208.201 56.9888 207.852 57.5048C207.571 57.8461 207.38 58.2438 207.295 58.6658C207.322 58.6705 207.35 58.6699 207.378 58.6642C207.405 58.6586 207.431 58.6479 207.453 58.6329C207.476 58.6179 207.495 58.5988 207.51 58.5767C207.525 58.5547 207.534 58.5302 207.539 58.5046L207.748 58.2143L208.061 57.9241L208.375 57.6338C208.482 57.5202 208.565 57.3889 208.619 57.2468C208.65 57.1194 208.65 56.9871 208.619 56.8598C208.634 56.796 208.634 56.73 208.619 56.6663L208.723 56.7308ZM211.407 61.0847L211.72 61.7297C211.72 61.9232 211.72 62.149 211.999 62.3425V62.1167V61.9232C212.273 61.7645 212.53 61.5808 212.766 61.3749L213.184 60.9234C213.383 60.7997 213.57 60.6594 213.741 60.5042C214.021 60.2556 214.277 59.9859 214.508 59.6979C214.746 59.4354 215.002 59.1877 215.275 58.9561C215.496 58.7916 215.729 58.6408 215.971 58.5046C216.123 58.5216 216.268 58.5713 216.395 58.6497C216.523 58.7281 216.628 58.8331 216.703 58.9561C216.862 59.2907 216.934 59.6553 216.912 60.0204C216.959 60.4601 216.959 60.903 216.912 61.3427C216.912 61.8265 216.634 62.3425 216.424 62.923C216.43 63.0412 216.43 63.1596 216.424 63.2778L216.215 63.6648C216.201 63.8042 216.201 63.9446 216.215 64.0841C216.202 64.1912 216.202 64.2994 216.215 64.4066C216.206 64.516 216.231 64.6257 216.286 64.7227C216.342 64.8198 216.426 64.9003 216.529 64.9548C216.825 65.032 217.139 65.032 217.435 64.9548L218.097 64.6968L220.014 63.6003L221.303 62.7618L221.721 62.4392L222 62.1812L221.686 61.504C221.579 61.3167 221.486 61.1227 221.408 60.9234C221.301 61.0331 221.17 61.121 221.024 61.1814L220.083 61.9555C219.917 62.1161 219.73 62.257 219.526 62.3747C219.379 62.4214 219.22 62.4214 219.073 62.3747C219.114 61.8467 219.268 61.3315 219.526 60.8589C219.765 60.3685 219.918 59.8459 219.979 59.3109C219.997 58.717 219.891 58.1255 219.665 57.5693C219.51 57.1177 219.205 56.7228 218.794 56.4405L218.55 56.2793L217.888 55.731C217.775 55.6376 217.642 55.5666 217.499 55.5222C217.355 55.4779 217.203 55.4611 217.052 55.473C216.606 55.5105 216.183 55.6675 215.832 55.9245C215.461 56.1154 215.14 56.3797 214.891 56.6985V57.3758C214.616 57.8739 214.276 58.3396 213.881 58.7626C213.342 59.3177 212.76 59.8351 212.138 60.3107L211.407 61.0847Z" fill="white"/>
</g>
</svg>
